<?xml version="1.0" encoding="utf-8"?>
<!-- Generator: Adobe Illustrator 23.0.1, SVG Export Plug-In . SVG Version: 6.00 Build 0)  -->
<svg version="1.1" id="Layer_1" xmlns="http://www.w3.org/2000/svg" xmlns:xlink="http://www.w3.org/1999/xlink" x="0px" y="0px"
	 viewBox="0 0 2262.7 807" style="enable-background:new 0 0 2262.7 807;" xml:space="preserve">
<style type="text/css">
	.st0{fill:#53575A;}
	.st1{fill:#FFFFFF;}
	.st2{fill:none;stroke:#231F20;stroke-miterlimit:10;}
	.st3{fill:#595A5C;}
	.st4{fill:#8A2432;}
</style>
<title>Asset 2</title>
<g>
	<g id="Layer_1-2">
		<path class="st0" d="M332.5,269.8c5.7-3.1,12.1-7.1,19.2-11.8c41.4-27.6,70.6-59.5,87.6-95.6c4.7,18.1,8.7,30.1,11.8,35.8l4.4-3.6
			c-1.5-5.9-2.3-12-2.4-18.1c0-51.5,8.2-108.2,24.6-170.1l-3.3-1.5l-3,2.1c-18,71.8-33.7,121.6-47.3,149.4
			c-22.5,45.6-56.8,83-103,112.2l-0.6,2.1l3.9,1.5C328,271.1,330.7,270.3,332.5,269.8z"/>
		<path class="st1" d="M330.2,265.4c1-0.2,0.4-0.9,0.5-1.1C329.1,264.9,330.3,265.6,330.2,265.4z"/>
		<polygon class="st1" points="326,269 326,269.4 327.7,267.3 		"/>
		<path class="st1" d="M339.7,259.6c-2.1-0.3-4.8,3.6-7.5,4.9h-0.6c-0.1,0.6-0.3,1.1-0.5,1.7C334.1,264.1,337.4,260.8,339.7,259.6z"
			/>
		<path class="st1" d="M348.7,256.8c-0.8-0.1,1.3-1.5-1.8,1.1c0.1,0,0.3-0.1,0.4-0.1C347.6,257.6,348,257.3,348.7,256.8z"/>
		<path class="st1" d="M347.3,257.8C345.9,258.9,348.5,257.5,347.3,257.8z"/>
		<path class="st1" d="M353.5,252.5l-1.5,1.8c0.6,0,2.3-1.3,1.8-0.6C355.5,252,354.9,252.1,353.5,252.5z"/>
		<path class="st1" d="M354.6,250.3l-0.8,0.9C354,251.2,354.3,251.1,354.6,250.3z"/>
		<path class="st1" d="M352.1,253.2l1.7-1.9c-0.4,0-0.7-0.3-0.8,0.9C352.9,251.7,352.8,252.3,352.1,253.2z"/>
		<path class="st1" d="M350.8,253.9c-1.2,0.6-2.6,1.5-1.1-0.4c-1.6,1.5-2.3,2.2-2,2.4C348,256,349.2,255.4,350.8,253.9z"/>
		<path class="st1" d="M339.5,258c-0.5,0.2-1.1,0.5-1.6,0.7l-0.9,1.2C337.5,259.3,339.9,258.3,339.5,258z"/>
		<path class="st1" d="M365.1,243.8c-0.1-0.3-1.1-0.1-1.5-0.3l-1.1,1.4C363.4,244.5,364.7,243.5,365.1,243.8z"/>
		<path class="st1" d="M363.6,243.5c0.5-0.7,1.1-1.4,1.6-2.1C363.5,242.9,363.3,243.3,363.6,243.5z"/>
		<polygon class="st1" points="353.9,248.9 351.3,252.3 354.5,248.3 		"/>
		<path class="st1" d="M372.4,237.2l-0.6,1.5c0.4-0.9,0.8-1.7,1.2-2.6C372.8,236.5,372.6,236.8,372.4,237.2z"/>
		<path class="st1" d="M377,232.5c-0.4,1.2,1.8-0.3,1.2,0.7c1-1.2,1.9-2.5,2.5-4C379.8,230.6,378.5,231.7,377,232.5z"/>
		<path class="st1" d="M381.8,227.1c-0.4,0.7-0.8,1.4-1.1,2.1C381.2,228.6,381.6,227.8,381.8,227.1z"/>
		<path class="st1" d="M368.5,238.6c0.8,0,1.5-0.2,2.1-0.7h-1.3L368.5,238.6z"/>
		<path class="st1" d="M369.2,237.9L369.2,237.9l1.7-1.4L369.2,237.9z"/>
		<path class="st1" d="M368.3,238.8l0.2-0.2C368.4,238.6,368.3,238.6,368.3,238.8z"/>
		<path class="st1" d="M359.5,245.2c0.8-1.3,2.9-3.8,0.1-2.3C359.2,244,360.8,243.2,359.5,245.2z"/>
		<path class="st1" d="M366.7,238.8l-2.1,1.7c0.2,0.1,0.8,0,0.4,0.7L366.7,238.8z"/>
		<polygon class="st1" points="367.5,237.7 366.7,238.8 367.5,238.2 		"/>
		<path class="st1" d="M378,229.9c0.7-1.1,1.5-2.2,2.4-3.1c-1.2,1-2.4,2.1-3.5,3.2C377,230.3,376.9,231.1,378,229.9z"/>
		<path class="st1" d="M373.7,233.8l0.1-0.2C373.7,233.6,373.6,233.7,373.7,233.8z"/>
		<path class="st1" d="M390.1,216.2l-0.3,0.1c0,0.1,0,0.1,0.1,0.1L390.1,216.2z"/>
		<path class="st1" d="M376.7,230c-0.7,0.5-1.3,1.2-1.6,2c0.6-0.7,1.2-1.4,1.9-2.1C376.9,229.8,376.9,229.7,376.7,230z"/>
		<path class="st1" d="M384.3,223.9c-0.5,0.3-1.1,0.7-1.7,1.1C383.2,224.8,384.3,224.2,384.3,223.9z"/>
		<path class="st1" d="M374.3,233.5l-0.1,0.1C374.6,233.5,374.5,233.4,374.3,233.5z"/>
		<path class="st1" d="M374.3,233.5c0.3-0.5,0.5-0.9,0.7-1.5c-0.4,0.5-0.8,1-1.2,1.6C374,233.5,374.2,233.5,374.3,233.5z"/>
		<path class="st1" d="M388.7,209.4c0.2,0.3,0,1.2-0.5,2.2c-0.7,1.1-1.6,2-2.7,2.7c-1.3,2.3,1.8,2.8,4.4,2c-0.2-0.3-0.4-0.5,1-2.8
			c-0.9,0.4-4.7,3.8-3.7,1.6c2-2.9,2.1-2,3.5-3c-1.7,0.5,1.8-4.4,0.1-4.7l-1.6,2.7C389,210,389.4,208.9,388.7,209.4z"/>
		<path class="st1" d="M386.4,220.1l-0.7,0.9c1-0.9,2.1-1.6,3.3-2.1c0.9-1.6,1-2.1,0.9-2.4l-3.7,4L386.4,220.1z"/>
		<path class="st1" d="M382.3,224.6c0-1.2,1.5-3.4-0.3-2.8c-2.2,2.4-1,2.1-2.1,3.8c3.5-3.9-0.7,1.4,2.3-1c-0.6,0.8-1.1,1.5-1.8,2.2
			c0.7-0.6,1.4-1.2,2.1-1.7l-0.1,0.1l0,0l0,0c-0.2,0.1-0.3,0.1-0.1,0c0,0,0-0.1,0.1-0.1C382.3,224.9,382.3,224.8,382.3,224.6
			c1.2-1,0.4,0,0.1,0.4c0,0,0,0.1,0,0.1l0,0c1.1-1.4,2.2-2.7,3.3-4.1C384.5,222.1,383.4,223.3,382.3,224.6z"/>
		<path class="st1" d="M360.5,239.6c0.2,0,0.2,0,0.3,0.1C361,239.4,361,239.2,360.5,239.6z"/>
		<path class="st1" d="M362.5,238.6c-0.2,0.6-0.6,1.2-1.2,1.6c-1,0.5-0.3-0.3-0.5-0.5c-0.4,0.6-1.6,2.1,0.5,0.9l0.2-0.3
			c1.8-1.1,4.5-2.2,4.3-1.9C364.6,238.2,363.5,238.3,362.5,238.6z"/>
		<path class="st1" d="M372.5,231.6l2.8-3.3l-2.1,1l0.4,0.2C371.7,231.1,372.4,231.1,372.5,231.6z"/>
		<path class="st1" d="M390.7,216.1l0.3,1c0.2-0.9,0.5-1.8,0.7-2.7C391.4,215,391.1,215.6,390.7,216.1z"/>
		<polygon class="st1" points="394.3,211.7 394.8,212.4 395.4,210.9 		"/>
		<path class="st1" d="M464.4,94v1.3C464.4,94.8,464.4,94.4,464.4,94z"/>
		<path class="st1" d="M465.8,85l-0.4-0.3C465.6,85.2,465.7,85.4,465.8,85z"/>
		<path class="st1" d="M454.8,87.5c1.2-1.6,2.9-3.2,2-3.3l-1,0.3C455.6,85.6,455.3,86.6,454.8,87.5z"/>
		<path class="st1" d="M476.8,11.1l0.4-0.5l-0.5-1.4L476.8,11.1z"/>
		<path class="st1" d="M479.9,13.2l-1.1,2.2C479.2,14.7,479.6,14,479.9,13.2z"/>
		<path class="st1" d="M460,143.3l0.8,1.5C460.9,142.5,460.4,143.5,460,143.3z"/>
		<path class="st1" d="M426.1,163c0.9-1.1,1.6-2.2,2.3-3.4C427.1,161.2,425.7,162.2,426.1,163z"/>
		<path class="st1" d="M455.8,89.1c0,0.8,0.2,1.1,0.4,1.2C456.1,89.4,456,88.9,455.8,89.1z"/>
		<path class="st1" d="M430.5,155.4c-0.2,0.2-0.4,0.5-0.5,0.7c-0.4,1.2-0.9,2.4-1.5,3.6C429.6,158.5,430.3,157,430.5,155.4z"/>
		<path class="st1" d="M391,233.8c-0.1,0.1-0.3,0.2-0.4,0.2C390.7,234.1,390.8,234,391,233.8z"/>
		<path class="st1" d="M343.6,258.7c0.4-0.3,1.1-0.8,1.8-1.2C344.7,257.8,344.1,258.2,343.6,258.7z"/>
		<path class="st1" d="M408.5,193.7C407.9,194.7,408.5,193.9,408.5,193.7z"/>
		<path class="st1" d="M402.3,196.5c0.1-0.3,0.1-0.5-0.1-0.6C402.4,196,402.4,196.3,402.3,196.5z"/>
		<path class="st1" d="M430.4,142.4v-0.1C430.1,142.5,430.1,142.5,430.4,142.4z"/>
		<path class="st1" d="M407.1,195c0.4-0.3,0.8-0.7,1.1-1.1C407.8,194.2,407.5,194.6,407.1,195z"/>
		<path class="st1" d="M407.6,195l-0.7,0.8C407,196,407.1,196,407.6,195z"/>
		<path class="st1" d="M409.4,192.3c-0.4,0.5-0.8,1.1-1.2,1.5c0.2-0.2,0.3-0.2,0.3-0.1C408.7,193.4,409,193,409.4,192.3z"/>
		<path class="st1" d="M440.5,176.5v-0.3C440,176,440.2,176.2,440.5,176.5z"/>
		<path class="st1" d="M454.7,55.4c0,0,0,0.1,0,0.1V55.4L454.7,55.4z"/>
		<path class="st1" d="M455.2,51.1c0.5,1.4,0.3,3-0.4,4.3l2.8-0.7L455.2,51.1z"/>
		<path class="st1" d="M461.8,115.6l1.1-2.8c0.9,3.7,0.1,6.2,1.5,3.6c-2.6-0.7,1.1-11.4-1.5-12.2l0.8-1.9c-0.1,0.6,0,0.7-0.1,1.2
			c1.8-3.6-1.6-3.1-0.5-7.9c0.5-1.7,1-2.8,1.2-1.6l-0.1-3.9c0.2-1.1,0.6-0.7,0.4,0.3l0.7-5.8h0.1c-0.3-1.2-0.6-2.5-0.7-3.8
			c0.6-1.4,0.2,0.8,0.6,0.5l-0.1-3.3c0.9-1.2,1.1,1.6,0.7,3.7c3.2-2.5-0.3-2.8,2.4-8.9c-0.1,1-0.1,2-0.2,3c1.8-1.7,1.7-4.1,3.3-7.3
			c-0.6,0.7-3.6,6.3-3.6,2.8c0.5-1.3,0.7-2.7,0.5-4.1c1,0.2,1-1.7,1.4-4l1.2,0.4c0.1-2.5-0.6-2.4-0.8-4c0.7-2.7,1.8-3.1,2.7-3.5
			c1.1-4.3-2.2,2.7-1.4-2.5c1.2-3.5,1.3-6.2,1.5-10.6c1-2.4,0.7,0.6,1.2-0.2l-0.5-2.5c0.1-0.5,0.4-0.3,0.5-0.2c0-2-1.2-0.4-0.9-3.5
			c-1.2-1.1,3.4-5.6,2.7-9.6c0.6-0.8,0.6,0.6,1.2,0.5c0.2-5.3,0.3-4.5-0.1-8.9l1.7-3.3c-1.6,2.3-1.9-1.2-2-4.3
			c-0.7,0.8-1.3,1.5-1.6,2l0.5-4.8c0.4-0.5,0.7,0.1,1,1c0-0.3,0-0.7-0.1-0.9c0.9-1.5,1.4-0.5,1.8,0.9c-0.4,0.5-0.8,1-1.2,1.5
			c0.5,1.3,1,2.6,1.8,2.6c-0.1-0.5-0.1-1.1,0-1.6c0.1,0.4,0.3,0.6,0.4,0.5s0-0.7-0.1-1.5l1.7-0.6l-0.5-0.4l0.9-2.1l1-2.4l-3.1-2
			l-3-2l-1.6-1l-2.6,1.4l-0.5,0.3c-1.1,1.2-2,2.3-2.8,3.4c0,1.3,0,2.6,0,3.8v0.4v0.4l0,0.7c0,0.5,0,1,0,1.5c0.1,2.3-0.1,4.6-0.5,6.9
			c-0.6-2-1.6-0.8-2.7-1.2c0.9-0.8,1.1-2.1,1.2-3.7c0.1-0.8,0.1-1.7,0.2-2.5c0-0.4,0.1-0.9,0.2-1.3l0.1-0.7l0.2-0.8L467.5,9
			l-0.1,0.3c-0.1,0.1-0.1,0.3-0.2,0.4c-0.1,0.2-0.2,0.3-0.3,0.3s-0.4-0.3-0.4-0.5L466,16c-1-0.4-1.1,1.2-1.9,2.7
			c2.3-0.8,0.1,5,0,7.8c-0.7,0-1.2-0.8-0.2-3.9c-2.4,3.1,1.1,5.1-1,8.1c0.2-0.8,0.4-1.2,0.1-1.5c0.1,2-1.5,6.2-1.8,5l0.2-0.8
			c-1.6,5-4.1,15.4-2.7,16.6c-0.7-0.4-1.4-1-2-1.6l3,10.6c-1.2-1.2-5.4,0.9-5-3.5c-0.8,1.6-1.3,3.4-1.4,5.2c0.4-0.8,2.6-1.5,2.4-0.3
			c-2.4,2.6-1.4,1.9-3.9,5.3c0.6-1.1,2.5,0.9,1.8,2.8c-0.2-0.4-2.2-0.5-2.2-1.2l0.8,5.4c0-1.3-1.8-0.7-2.7,0.2
			c0.6-0.4-1.2,4.2-1.4,5.5l1.1-1.9c-1.9,5.3,1.4,6.3-0.3,11.6c-0.3-0.8-2.2-2.4-3.4,0.2c0.7,1.6,3.6,7.2,2.9,12.2l-0.9,0.7
			l-0.5,3.9c-0.6-2.2-1.2-4.4-1.5-6.7c-0.5-2.5-0.9-5-1.1-7.5c-1.1,1.9-0.9,0.3-1.8,3.4c-0.9,0.9-0.4-1.9-0.1-2.8
			c-0.9,2.3-1.7,4.6-2.6,6.9c1.4,0.1-0.5,5.8,0.7,5.9l1.1-8.1c1.4,0.1,2.2,5.6,0.4,10.5c-0.9,1.1-2-1.7-2.4-1.7
			c0.3,0.8-0.7,5-1.2,5.3v-2.3c-1.4,2.6,0.2,5.1-2.2,8c-0.5,1.1-2.8,2.8-2.1,3.3c2.1-1.3,6.7-0.2,7.4,1.5c-0.2,0.4-3.5,5.5-4.7,6.6
			c-1.8,1.5-1.6-3.8-3.2-2.6c0.3,0.2,0.4,1.4,0.3,1.9c-0.7,1.1-0.9-0.9-1.7,1.8c1.1,0.9-2.1,5.2,0.6,1.6c-0.6,2.7-1.3,2.6-2.4,5.5
			c1.2-0.6,1.8,3.8,1.1,6.4c-0.3-0.3-0.9,0.1-1.2,0.3c-1.1,2.6-2.1,4.4-3.1,6.3s-2,3.6-3.1,5.9c-0.3,0.1-0.7,0.7-1.2,1.1
			s-0.8,0.6-0.8,0c0,1-0.3,2.1-0.7,3c-2.5,2.2,1.5-3.2-0.9-1.8c0.6,0.5-0.9,4.1-1.5,6.4c1.4,0,2.6-4.6,3.2-6.8
			c1.5,0.7,1.3,5.1-0.6,10.3c-1.8,4-1.9,1.1-2,1.9c-4.2,6.9-0.9,7.5-5.5,12.7c-2.3,1.7-1.9-1-2.8-0.9c1.5-3.2,3.4-4.3,4.6-6.3
			l-2,2.2c0.4-1.5,1.2-3,2.1-4.2c-0.9,0.8-2.8,3.6-4.8,6.9c-1,1.7-2.2,3.4-3.3,5c-1,1.5-2.1,2.9-3.3,4.3c-0.3,1.1-1.1,2.9-0.3,2.4
			l1-1.7c1.8-1-1.2,3.7,0.6,1.9c-1,2.5-2,5.5-4.6,8.3l-1.4-0.2c0.4,0.2,2.1-1.5,2.4-2.6c-0.4,1.6-4.8,3.6-4.5,5.9l2.3-1.6
			c-1.2,2.5-2.1,6-4.6,8.3c1.9-0.4,0.4-0.7,3-1.6c-2.6,0.6,5.3-6.8,1.8-5.3c2.8-0.9,3.1-2.9,6.1-4.7c-0.4-0.2-1.3,0.5,0.5-1.7
			c0-0.2,0-0.5,0.1-0.7l0.1-0.1l-0.1,0.1c0-0.1,0-0.1,0,0c-0.4,0.4-0.8,0.6-1.3,0.8c0-1.7,2.7-5.3,3.1-6.8c1.1-1.3,0,0.8,0.9,0.3
			l0.6-2.3c0.9,0.3,3.7-2.9,2,0.7l2-2.9c1.6-1.6,2.9-3.5,3.8-5.6c1-1.3,1.4-4.1,1.2-2.5c0.8-1.7,1.5-3.4,2.3-5.1l0.2,0.1
			c1.4-2.5,2.6-5.1,3.6-7.7c1.2-2.8,2.7-5.5,4.6-7.9c0.7-2.2,1.6-4.3,2.6-6.4l1-0.2c0.7-2.3,3.5-6.3,3.1-7.5
			c2.9-1.6,4.6-10.5,6.4-14.3l-0.9-0.5c1-2.9,1.8-5.8,2.4-8.8l-0.9-0.1c0.3-3.1,3.1-7.2,4.5-11.8c0.2,0.4-0.2,1.6-0.7,2.3
			c1.9-2.4,2.4-5.4,2.9-8.4s0.9-5.9,2.3-8.1c0-1.1,0.4-2.1,0.9-3c0,0.1-0.1,0.2,0,0.3c0.1-0.2,0.1-0.3,0.2-0.5c0.3-0.5,0.7-1,1-1.6
			c-0.3,0.4-0.6,0.8-0.9,1.3c0.4-1.3,0.6-2.6,0.8-3.9l1.1-0.3l0.1-0.3c0.8-1.3-0.1-1.3-1-0.7c0.1-0.7,0.1-1.4,0-2.1
			c1.8-0.7,0.6-3.9,2.6-5c-0.5-1.2,1.5-7.3,0.1-8.6c0.2,0,0.5-0.4,0.2,0.4c0.7-1.4,1.1-3,1.1-4.6l1.4-0.3l-0.6-3.9
			c1.3-1.9,2-2.7,2.3-0.3c0-5.5,0.6-4.3,0.4-9l0.7,0.4c0.4-1.5,0-4.3,0.9-5c1.2-1.5,2.4-5.8,3.7-10.7c1.2-5,2.8-10,4.7-14.8
			c-2.7,1.1,2.1-3.9,0.4-4.7c0.7-0.4,1.3-1.6,1.4,0c0.2-1.4,0.5-2.7,1-4l0.1-0.4l0.1-0.2l0.1-0.3c0.1-0.2,0.1-0.4,0.2-0.6
			c0.4-0.4,0.6-0.9,0.7-1.4c0.6,0.3,0.1,0.9,0.5,1c0.1-0.2,0.2-0.4,0.3-0.6l-4.8,0.4c0.2,0.1,0.4,0.2,0.6,0.4
			c0.2,0.3-0.3,0.3-0.8,0.2l5.4-0.5c-0.1,0.1-0.1,0.2-0.1,0.3c0.1-0.1,0.2-0.1,0.2-0.2l-5.6,0.5c1.1,0.5,2.4,0.7,3.7,0.6l-2.6-5.4
			c0.4,0.8,1.1,1.5,2,1.8c-1.3,2.2-1.5,3.4-1,5.3c-0.7,0.7-1.6,1.9-1-1c-0.3,0.8-1.1,3.2-1.7,5.5s-1,4.5-0.4,4.7
			c-0.4,0.8-0.6,1.8-0.6,2.7c-1,3.6-1.2,3.9-1.9,7.5l0.4-1c1.2,1.8-0.4,3.1-0.8,6l-0.1-0.1c-2.6,6.4-0.1,3-2.8,9.3l1-0.2
			c1.9,1-2.5,5.6-2.4,9.6l0.8-1.3c0.3,2.2-3.9,5.3-4.6,7.4c-0.3,0.4-0.1-0.8-0.1-1.4c-2.3,5.3,1.1,1,0.6,5.1
			c-0.8,0.6-1.5-1.3-2.1,1.4c-0.8,1.3,0.7,8.4-1.2,12c0.7-0.8,1.3-1.5,1.4,0.5c-0.4,1.8-0.9,3.6-1.6,5.3c-0.6,1.9-1,3.8-0.4,5.3
			c-0.2,0.3-0.4,0.5-0.5,0.5c0,1.2-0.1,3-0.1,4.8c-0.1,1.4,0.1,2.8,0.4,4.1c-1.8,0.8-1.9,4.4-1.9,7.7s0.1,6.3-1.4,6.1
			c-0.2,2.3-0.4,4.7-0.6,7l-0.3-0.2c-0.6,4.4-0.1,6.1,0.5,7.7c-0.3,1-0.5,0.2-0.7,0.1c-1.1,6.5-1.1,7.2,0,12.7l-1,0.5
			c0.2,0.8-0.3,3.1-0.8,6.1c-0.6,3.2-0.8,6.5-0.5,9.8c-0.1-0.1-0.3-0.2-0.4-0.7c0.5,3.6-0.4,8-0.8,11.7s-0.5,7,1.3,8.3
			c0.3,1.6,0.6,3.3,1,4.9c0-3.2,0.4-2.9,0.9-2.3s1,1.8,1.2,0.5c0.3,2.4-0.6,6.4-1,3.4l0.1-0.5c-1-0.5-1,1.5-0.8,3.6s0.6,4.3-0.1,4.3
			c0.2,1.1,0.5,2.3,0.7,3.4c-1,0.8-2,1.5-3,2.2l5.1,1c-1.6-3.5-2.9-7.1-3.9-10.9c-0.5-1.9-1.1-3.8-1.6-5.6c-0.8-2.8-1.6-5.7-2.4-8.5
			c-0.2,1.1-0.4,2.1-0.6,3.1c-0.5-1.8-1-3.5-1.4-5.3c-0.1-1.8,0.2-3.6,1.3,0.7c-0.1-1.5-0.5-3-1.2-4.2c-0.6-1-1.2-1.4-1.3-1.1
			c-0.8-4.3-0.5-4.6,0.1-3.7s1.4,2.8,1.1,1.4l-1-3.4l0.1,1.1c-1.1-1.7-1.4-0.4-2.6-5.3c-0.2-1.2-0.3-2.2-0.4-2.5s0.1-1.4-0.3-0.7
			c0-0.3-0.2,0-0.9,1.7l-3.5,6.9c0.5-0.2,0.9-0.3,1.4-0.3c-1.4,4.1-3,5.8-1.3,5.5c-0.6,0-1.7,1.4-3,3.6c-0.7,1.1-1.4,2.4-2.2,3.8
			l-2.4,4.1l-1.7,2.9c-0.5,0.9-1.1,1.7-1.5,2.4c-0.6,1-1.3,2-2.1,2.9c-0.2,0.7-0.5,1.5-0.9,2.2c-0.4,0.7-0.7,1.4-1.2,2
			c-0.9,1.4-1.9,2.7-3,4.2c0.4-0.3,0.9-0.4,1.1-0.1s0,1-1,2.3c-0.7-1.3-1.9-0.3-3.2,1.1c-0.7,0.7-1.4,1.5-2.1,2.2
			c-0.7,0.6-1.5,1.1-2.4,1.4c1.2-0.5-0.1,1.3-1.4,3s-2.4,3.3-0.5,2.6c-1.9,1.9-0.9-0.5-2.7,0.6c-0.9,1.4-1.9,2.8-3.1,4
			c-1.2,1.3-2.5,2.5-3.9,3.8c-2.7,2.5-5.8,4.9-8.4,7.9c0.2,0.3,1.5-0.2,0.6,1.4l-4.3,1.5c-1,1.2,0.3,2.5-2.6,3.5
			c0.5,0,1.3-0.1,0.5,0.7c-3.2,2.2-6.2,4.7-9.3,7.2s-6.1,5-9.2,7.5c-1.5,1.3-3.2,2.4-4.8,3.6s-3.2,2.3-4.9,3.4
			c-3.4,2.1-6.9,4-10.6,5.5c2.1-0.6,1,0.2-0.4,1.1c1-0.4,0.5,0.7,0.9,1c-2.1,0.8-4.2,1.6-6.3,2.4c-0.3,1.8-6,3.7-5.9,5.1l1.7-1.2
			c-1.6,2.7,5,0.9,5.7,2.7c1.8-3.1,8.5-2.3,11.5-7.2c1.2-0.3-0.5,1,0.3,1.1c0.6-1.4,1.9-2.5,4.5-3.8l-0.2,0.4c3.4-2.4,5.8-4,8.5-5.7
			s5.4-3.3,9.3-5.9l-1.1-0.3c0.9-0.6,2-1.2,3-1.6c0.4-1.3-0.6-0.4-1.8,0.4s-2.4,1.7-2,0.4c3.3,0,11-8.8,13.7-8.4
			c2.3-2-1.4-0.2,0.9-2.3l1-0.1l0.1-1.1c1.6-1.3,2.8-1.4,3.2-1.1c-0.5,0.5-0.9,0.9-1.3,1.4c2.4-1.3,5.3-5.2,6.1-5.7
			c-0.8,0.6-1.6,1.2-2.4,1.8c5.8-6.2,13.5-13.1,17.9-20.1l-0.8,0.2c1-1.6,2.1-3.1,3.5-4.4c1.5-1.4,2.9-2.9,4-4.7l-0.1,0.3
			c0.6-1.6,1.5-3.1,2.6-4.4c-0.6,1.7,2.7-2,1.9,0.1c3.2-6.1,1.4-3.1,2.5-7.7l1.2-0.4c0.3-1.6,0-1.9,1.7-4.9c-1,2.7,2.1-1.2,1.1,1.9
			c1.2-1.1,2.1-2.4,2.9-3.8c0.2-0.3,0.3-0.6,0.5-0.9c0.1-0.2,0.1-0.3,0.2-0.5l0.3-0.9c0.1-0.6,0.4-1.1,0.6-1.6c0.3-0.4,0.6-0.5,1,0
			c0.3-4.7-2.2,1.7-1.9,0.3c-0.5,0.1-0.5-0.6-0.2-1.6c0.3-1.1,0.7-2.2,1.4-3.2c0.5-0.8,1-0.4,1.5,0c0.2,0.2,0.4,0.3,0.7,0.4
			c0.2,0,0.5-0.1,0.8-0.8c-0.1,0.2-0.2,0.6-0.3,0.9c0.1,0.1,0.2-0.1,0.3-0.4c0,0,0-0.2,0.1-0.1c0,0,0,0,0,0.1c0,0,0.1,0.1,0.1,0.1
			c0.1,0.1,0.1,0.2,0.2,0.3c0.2,0.6,0.3,1.2,0.2,1.9c0.4-0.9,0.5-0.4,0.6-0.1s0.2,0.5,0.7-0.6l-1-2.5c0.3,0.4,0.8,0.2,1.4,0.8
			s1.2,1.9,1.4,4.2c-0.3,0-0.9-0.6-1.3-0.9c0,0.5,0.1,1,0.3,1.4c0.3,0.4,0.4,0.9,0.3,1.4c-0.7,0.4-1-0.3-1.3-1.2s-0.6-2.1-1.1-1.7
			c-0.1,0.9,0.2,1,0.5,1.3s0.3,0.5-0.3,1.4c0.8-1.1,1-0.1,1.1,0.7c0,0.4,0.1,0.8,0.3,1.2c0.1,0.2,0.2,0.4,0.3,0.6
			c0,0,0.1,0.1,0.1,0.1l0.1,0.1l0.1,0.1c0.1,0.2,0.3,0.4,0.5,0.6h-1c0.6,0.8,1.1,1.8,1.5,2.7l-1.8-1.6c2,2.7,1,6.1,2.7,8.9
			c-2.2-6.1,0.6-1.8,0.3-4.6c1.8,3.4,1.8,4.7,1.6,6.1c-0.1,0.8-0.2,1.7-0.1,2.5c0.3,1.5,0.8,3,1.6,4.4l3.4,6l5.1-4.3l0.9-0.8
			c-0.3,0.3-0.6,0.5-0.9,0.8l-5.7,4.2l-2.8-5.9c-0.7-1.5-1.1-3.7-0.1-2.3l0.7,2l1.8,5l5.6-3.5c1.4-0.9,2.8-1.7,4.3-2.4
			c3.5-3,3-2.8,1.9-2.3s-2.6,1.3-1.5,0c0.6-0.2,1.2-0.5,1.8-0.9c-0.4-1.9-1.9-3.7-2.7-6.2l1-0.1c-0.1-0.5-0.1-0.9-0.2-1.4
			s-0.1-0.6-0.1-0.8c-0.1-0.4-0.2-0.7-0.3-1.1c-0.1-0.4-0.4-0.6-0.8-0.8c-0.5-0.3-1.1-0.5-1-3.3c0.5,0.7,1.1,1.5,1.6,2.2
			c-0.2-0.9-0.5-1.9-0.7-2.8l1.1,0.5c-0.5-1.1-0.7-2.3-0.8-3.5c0-0.5,0-1,0-1.6c0-0.3,0.1-0.6,0.1-0.9s0.1-0.7,0.1-1.1
			c-0.7,0.8-1.7-0.4-1.7-3.3c0.6-1.9,0.9,1.1,0.8-3c0.6,0.9,1.4,1.9,0.4,3.7c0.3,0.2,0.6,0.9,0.9,1.1c0.7-2.1,0.2-5.3,0.2-6.7
			c0,0.5-0.1,1.1-0.2,1.6c-0.4-2-0.8-3.9-1.2-5.9c0.4-0.9,0.7-0.2,0.9,0.6c-0.1-1.2-0.5-2-0.5-3.8c0.8,0.5,1.6,0.4,1.9,2.9l-0.7-5.6
			c0.4-0.4,1.1-2.8,1.3-2.1c0.6-3.1-1.2-7.7-0.3-11.7c-0.2-0.5-0.3-1-0.3-1.5c0.4-3.9,1.7-7.2,1-11.8l1.6-2.5c0-3.6-2.1,3.3-2-2.7
			c0-4.3,1.4-1.4,1.9-2.9c-0.5-2.2-1.6-6,0.1-9.7C462.1,113.3,462,114.4,461.8,115.6z M467.7,71.6c0,0.9,0.4,2.7-0.3,3.2
			C466.4,73.7,467.1,73,467.7,71.6z M477,3.8c0.6,0,1.2,0.3,1.7,0.7l1.8,1.3l-0.6,1.2c-0.1,0.3-0.3,0.6-0.5,0.8
			c0-0.3,0.1-0.6,0.2-0.9l0.4-1.5l-1.4-0.7C478,4.5,477.5,4.2,477,3.8z M415.1,182.2c0,0,0-0.1,0-0.1
			C416.5,180.6,416,181.2,415.1,182.2z M412.6,185.4c-0.1,0.4,0,0.5,0.2,0.4c0.2-0.8,0.5-1.4,1.1-2
			C413.5,184,413.1,184.3,412.6,185.4L412.6,185.4z M439.6,153.1l0.5-0.4C438.8,155.8,439.2,154.5,439.6,153.1L439.6,153.1z"/>
		<path class="st1" d="M479.6,12.9c-0.2,0.1-0.4,0.2-0.6,0.2C479,13.5,479.2,13.6,479.6,12.9z"/>
		<path class="st1" d="M459.9,143v0.1c0,0.1,0.1,0.1,0.2,0.1L459.9,143z"/>
		<path class="st1" d="M432.6,126.2c0.2-0.5,0.6-0.9,1-1.3C433.4,124.7,433.1,125,432.6,126.2z"/>
		<path class="st1" d="M401.5,204.1l1.4-2.2c-0.5,0.7-1,1.2-1.7,1.7C401.4,203.6,402,203.4,401.5,204.1z"/>
		<path class="st1" d="M382.5,217.5c-0.2,0.4-0.5,0.6-0.7,1l0.4,0.2C383.2,217.5,383.7,216.4,382.5,217.5z"/>
		<path class="st1" d="M397.5,204c-0.8-0.4-1.5,1.1-2.5,2.6c0.1-0.1,0.1-0.2,0.2-0.3C395.6,207.5,396.6,205.8,397.5,204z"/>
		<path class="st1" d="M394.6,207c-0.3,0.5-0.6,0.9-1,1.3C393.8,208.7,394.1,207.8,394.6,207z"/>
		<path class="st1" d="M410.2,190.1c-0.6,0.6,0.6,1,0,1.3C410.5,192.7,412.4,185.8,410.2,190.1z"/>
		<polygon class="st1" points="394.5,203.5 395.6,203.6 395.6,202.3 		"/>
		<path class="st1" d="M403.5,192.6l-1.9,2.2c0.2,0.1,0,0.4-0.2,0.8C402.5,194.2,403.8,192.7,403.5,192.6z"/>
		<path class="st1" d="M401.5,195.6c-0.5,0.6-0.9,1.3-1.2,2C400.7,196.9,401.1,196.3,401.5,195.6z"/>
		<polygon class="st1" points="396.6,200.2 397.3,199.7 398.6,198.1 		"/>
		<path class="st1" d="M420.1,166.4c0.4-1,0.8-1.9,1.2-2.9c-0.2-0.4-0.7,0.2-1.1,1.3C420,165.6,419.5,166.6,420.1,166.4z"/>
		<path class="st1" d="M413,173.3c0.4-0.4,0.9-0.7,1.4-0.8l-1-0.7C413.3,172.3,413.1,172.8,413,173.3z"/>
		<path class="st1" d="M417.2,165.2c-0.1-0.4,1.3-4.4-0.5-0.9C416.9,164.7,415.6,167.6,417.2,165.2z"/>
		<polygon class="st1" points="437.4,122.8 437.2,123.5 439.1,124.1 		"/>
		<path class="st1" d="M445.6,81.8c-1.5,3.4,1,1.2-0.6,4.2c0.2,1,1.3-2.5,1.4-1.5C446.6,82.3,447.2,81.2,445.6,81.8z"/>
		<path class="st1" d="M446.4,84.5c0,0.4,0,0.8,0,1.2C446.5,85.3,446.5,84.9,446.4,84.5z"/>
		<polygon class="st1" points="335.7,262.3 333.5,263.1 335.1,262.9 		"/>
		<path class="st1" d="M332.6,265.8l-1.1-0.9l-0.7,1.7C331.2,266.4,332.1,265.8,332.6,265.8z"/>
		<path class="st1" d="M471.4,65.6l-0.3-0.2c-0.4,0.3-0.5,0.8-0.8,1.9L471.4,65.6z"/>
		<polygon class="st1" points="465.2,97.1 465.3,96.6 464,97.4 		"/>
		<path class="st1" d="M463.4,124c0.2-1.1,0-2.4,0.2-3.5C463.6,122.9,462,124.2,463.4,124z"/>
		<path class="st0" d="M577.8,371.9c0-33.1-7.8-70.7-23.4-112.7c-17.7-47.7-38.4-77.8-61.8-90.3c-2,3-3,7.4-3,13.3
			c0,16.8,1.6,44.7,4.7,83.7c3.8,46.6,7.6,72.8,11.5,78.7l3,1.2l2.4-2.7c-3.3-48.5-5.9-84.8-7.7-108.9
			c20.5,31.6,33.8,53.2,39.9,64.8c14.8,28.2,22.2,52.5,22.2,72.8c0,28.8-15.1,59.4-47.6,92.4c-12.5,10.2-28.9,15.3-49.5,15.3
			c-23.5,0-39.5-14.6-47.9-43.8c-5.9-20.3-11.1-39.3-15.7-56.8c-10.7-41.8-23.3-83.2-37.9-124l-3-1.2c-3,1.2-4.4,10.8-4.4,28.7v15.1
			c8.1,24.5,13.7,41.4,16.9,50.9c8.5,26,12.7,43.8,12.7,53.3c0,16.2-10.8,35.7-32.3,58.6v5.2c-13,10.5-27.5,19.2-42.9,25.9l1.5-17.8
			c2-24.3-0.5-37.8-7.4-40.5l-3,1.2c0,16.6-1.2,28.7-3.5,36.4c-3.7,12.4-11.3,21.4-22.8,26.9c1-2.4,1.5-7.3,1.5-14.8
			c0-20.3-2-30.5-5.9-30.5c-2.2,0-3.3,2.2-3.3,6.5c0,29.2-13.8,48.9-41.4,59.2l-15.7,0.3c-14.2-12-22.8-19-25.7-21l-2.1,2.4
			c-5.5,22.9-9,40.5-10.5,52.7c22.7,22.5,34,46,34,70.4c0,27.4-9.2,53.4-27.5,77.8c-19.7,26.4-42.9,39.6-69.5,39.7
			c-26.4,0-49-10.8-67.8-32.5c-18.2-20.9-27.2-44.8-27.2-71.6c0-59.6,30.7-109.5,92-149.7c38.3-24.5,64.8-41.3,79.6-50.6
			c18.9-12,32.5-29.3,40.5-51.8c0.6-1.4,0.9-2.9,0.9-4.4c-0.1-1-0.4-2.1-0.9-3h-2.4c-15.4,21.3-32.3,37.4-50.6,48.2
			c-30.5,17.8-51.8,29.9-63.9,36.4c-27.3,15.5-51.3,36.1-70.7,60.7c-21.5,27.2-33.7,55.3-36.7,84.3c-1.8,17.6-2.7,31.6-2.7,42
			c0,37.7,9.7,72,29,103c22.3,35.7,51.1,53.6,86.4,53.6c21.9,0,43.5-14.8,64.8-44.4c18-24.9,29.8-50.1,35.5-75.8
			c7.5-33.3,11.2-55.8,11.2-67.5c0-17.8-0.5-29.1-1.5-34c5.9-0.6,11.5-2.8,16.3-6.2l14.2-10.1c1.5,0.7,3.1,1,4.7,0.9
			c10.5,0,19.9-3.7,28.4-11c7.3,0,19.7-5.9,37.3-17.8c21.3-14.4,33.9-23.4,37.6-26.9v-4.9c4.7-4.2,8.9-8.9,12.7-14
			c8.7-12.2,13-21.4,13-27.5c3-11.2,4.9-19.7,5.9-25.5c8.5,28.2,14.8,46.7,18.9,55.3c11.6,24.1,25.7,36.1,42.3,36.1
			c24.1,0,42.8-3.8,55.9-11.4l0,0l0.3-0.2c3.4-2,6.5-4.3,9.4-7C562.4,482.6,577.8,433.6,577.8,371.9z"/>
		<path class="st1" d="M572.8,376.4c0.2-5.7-0.7-3.7-0.8-4.5C572,381.5,573.1,376.2,572.8,376.4z"/>
		<path class="st1" d="M556.1,468.7l0.4-1.7c-0.4,1.1-0.8,2.2-1.3,3.2l-1.5,3.1l-1.5,3.2c-0.3,0.5-0.5,1.1-0.7,1.6l-0.8,1.5
			c1.1-1.7,1.9-3.6,2.8-5.4l1.3-2.8l0.7-1.4C555.8,469.6,555.9,469.2,556.1,468.7z"/>
		<path class="st1" d="M493.6,525.3c4.4-0.2,12.8-2.5,20.7-7.3l3.8-2.3v4.5l-3.9-2.2c0.1-0.1,0.3-0.2,0.4-0.3l0.4-0.2l0.7-0.4
			l1.3-0.9c0.9-0.6,1.7-1.2,2.5-1.9s1.6-1.3,2.4-2c0.4-0.4,0.8-0.7,1.2-1.1l0.3-0.3l0.5-0.4l0.6-0.5c1.6-1.4,3.2-2.9,4.7-4.2
			c0.8-0.7,1.5-1.4,2.2-2.1l2-2l2-1.6c0.3-0.5,0.7-1,1-1.5l0.9-1.5l1.8-3.1c-1.7,2-3.4,4.3-5.5,6.3s-3.9,4.3-6.2,6.2l-6.6,6.1
			c-1.1,0.9-2.2,1.8-3.3,2.6c-0.6,0.4-1.1,0.8-1.7,1.2l-0.9,0.6l-0.5,0.3c-0.2,0.1-0.4,0.3-0.6,0.4l4.6,2.5l0,0V515l-4.5,2.7
			C507.7,521.3,500.8,523.9,493.6,525.3z"/>
		<path class="st1" d="M449.3,523.4c1,0.8-1,0-1.2-0.1l1.7,0.7c2.7,1,5.5,1.5,8.4,1.6l-1-0.1l-0.7-0.2c-1-0.1-1.9-0.3-2.9-0.5
			c-0.7-0.1-1.3-0.3-1.9-0.5l-1.1-0.4l-0.6-0.2L449.3,523.4z"/>
		<path class="st1" d="M456.5,525.4c3.9,0.3,2.6,0,1-0.1S454,524.8,456.5,525.4z"/>
		<path class="st1" d="M427.5,502.3c2.1,3.2,4.4,6.3,7,9.2c-0.2-0.3-0.4-0.6-0.7-1l-0.9-1.4l-1.1-1.6c-0.3-0.5-0.7-1.1-1-1.6
			c-1.3-2-2-3.5-0.9-1.9l-2.1-3.2l-1.4-2.2c-0.7-1.1-1.1-1.6-1.2-1.6s0.1,0.6,0.5,1.5S426.7,500.8,427.5,502.3z"/>
		<path class="st1" d="M421.3,492.8c0.4,0.9,1,1.8,1.5,2.7s1,1.8,1.5,2.7C423.5,496.4,422.5,494.5,421.3,492.8z"/>
		<path class="st1" d="M431.5,509c-2.7-3.4-5.1-7-7.3-10.8c0.3,0.8,0.4,1.3,0.8,2c0.2,0.4,0.5,0.9,0.8,1.3c0.5,0.6,1,1.3,1.6,1.9
			C426.5,502.7,428.1,504.8,431.5,509z"/>
		<path class="st1" d="M435.9,514.7c1.8,2.1,3.7,4,5.8,5.8c0.5,0.5,0.6,0.7,0,0.3c-1.5-0.9-2.9-2-4.2-3.1c2.8,2.7,6,4.9,9.5,6.5
			c1.1,0.4,1.9,0.7,2.3,0.8s0.6,0.1,0.5,0s-0.6-0.4-1.3-0.8l-1.3-0.7l-1.6-1C442,520.4,438.8,517.8,435.9,514.7z"/>
		<path class="st1" d="M489.5,527.7c3-0.4,6.1-1,9.1-1.7c2.5-0.9,5-1.8,7.4-3c-3.2,1.3-6.4,2.3-9.8,3c-1.9,0.5-3.6,0.8-4.9,1.1
			S489.4,527.6,489.5,527.7z"/>
		<path class="st1" d="M390.5,446.8c0.1,0.8,1.7-3.8,2.2-4.6l0.4-2.9l3.2-21.7l7.3,21.1l2,5.8c-0.4-1.7-1-3.8-1.6-6l-6.1-23.5
			l-5.2,24.1C391.9,442.9,390.9,446.5,390.5,446.8z"/>
		<path class="st1" d="M392.8,442.1c-0.7,4.4-1.6,8.9-2.5,13.3C393.2,443.6,393.2,441.5,392.8,442.1z"/>
		<path class="st1" d="M419,491.5c0.4,0.8,0.8,1.6,1.2,2.4l1.4,2.4c0.9,1.6,1.9,3.2,2.8,4.7s2,3,3,4.5l1.6,2.2l0.8,1.1l0.9,1
			c-2.7-3.4-5.2-6.9-7.4-10.7c-0.6-0.9-1.1-1.9-1.6-2.8s-1.1-1.9-1.6-2.9c-1-1.9-1.9-3.9-2.8-5.9C417.9,488.9,418.4,490.3,419,491.5
			z"/>
		<path class="st1" d="M372.1,492.1c0.7-1,1.2-2,1.8-3s1.3-2.2,1.9-3.3c-0.5,1-1.1,1.9-1.7,2.9s-1,1.8-1.6,2.6
			c-1.1,1.7-2.5,3.5-3.8,5.2C369.9,495.1,371.1,493.6,372.1,492.1z"/>
		<path class="st1" d="M351.3,516c4.3-3.8-6.9,3.8-2.2,0c-7.6,5.5-14,10.5-19.7,14.9C335.6,526.3,342.4,521.8,351.3,516z"/>
		<path class="st1" d="M319.6,538.1c3.1-2.2,6.2-4.5,9.7-7.2C326,533.3,322.8,535.7,319.6,538.1z"/>
		<path class="st1" d="M384,476.8c-0.3,0.4-0.8,1-1.7,2.2l-4.3,6.2c1.2-1.3,2.4-2.6,3.5-3.9C382.3,479.9,383.2,478.4,384,476.8z"/>
		<path class="st1" d="M381.6,481.1l-0.1,0.1c-2.9,4.8-5.3,8-6.3,9.4C376,489.5,378.2,486.7,381.6,481.1z"/>
		<path class="st1" d="M384.5,475.7l-0.5,1.1C384.3,476.5,384.5,476.1,384.5,475.7z"/>
		<path class="st1" d="M407.9,457.5c-2.9-7.5-8.3-23.5-4.2-7.7C405.9,455.2,403.5,446.1,407.9,457.5z"/>
		<path class="st1" d="M387.8,470.5c0.3-1,0.6-2,0.8-3l0.1-0.7c0-0.3,0.1-0.6,0.1-0.8c0-0.5,0.1-0.9,0.2-1.3l0.3-1.1l1.9-7
			c-0.3,0.2-1.2,2.7-0.5-1.2l-1.6,7.6l-0.2,1c-0.1,0.5-0.2,1-0.3,1.5c0,0.5,0,1,0,1.2l-0.1,0.8C388.3,468.3,388.1,469.4,387.8,470.5
			z"/>
		<path class="st1" d="M385.6,476.6c0.9-2,1.7-4.1,2.3-6.2c-0.5,1.6-1.1,3.1-1.8,4.5C385.9,475.5,385.7,476.1,385.6,476.6z"/>
		<path class="st1" d="M340.7,524.9c-5,3.9-10.7,7.8-17.1,12.2c7-4.4,14.2-9.3,20.9-14C345.3,522.2,348,519.8,340.7,524.9z"/>
		<path class="st1" d="M361.8,508.6v0.3v1.5l0,0v-0.3v0.2c0-0.6,0-1.1,0-1.5C361.9,508.7,361.9,508.6,361.8,508.6z"/>
		<path class="st1" d="M254.1,564.3l1.4-0.8h0.3c0.1-0.1,0.2-0.1,0.4-0.2l-0.7,0.1L254.1,564.3z"/>
		<path class="st1" d="M345.8,522.4c3.8-2.5,7.4-5.2,10.8-8.1c-3.7,2.8-7.7,5.7-12,8.8C344.2,523.5,344.1,523.6,345.8,522.4z"/>
		<path class="st1" d="M301.9,548.4c3.2-1.2,6.4-2.6,9.4-4.2c-1.4,0.6-3.5,1.6-5.5,2.4S302.3,548.1,301.9,548.4z"/>
		<path class="st1" d="M361.4,510l0.2-0.2C360.9,510.1,361,510.1,361.4,510z"/>
		<path class="st1" d="M361.4,510l-0.3,0.3l-0.3,0.3l-0.2,0.2l-0.4,0.3l-0.8,0.7l-2.9,2.5c1.5-1.2,2.9-2.3,4.2-3.4
			c0.3-0.3,0.6-0.5,0.8-0.7l0.3-0.3c0.1-0.1,0,0,0,0.1v0.2l0-0.3c0-0.1,0-0.2-0.1-0.1C361.6,509.9,361.5,510,361.4,510z"/>
		<path class="st1" d="M237.2,581.7c0.3-0.5,3.1-1.8,6.8-4.5c1.8-1.3,3.8-2.9,6.1-4.5s4.6-3.3,7.2-5l1-0.6l0.5-0.3
			c0,0,0.1-0.1,0.1,0l0.1,0.1l0.3,0.1c0.7,0.3,1.4,0.5,2.1,0.6c1.1,0.2,2.1,0.3,3.2,0.3c2.1,0,4.1-0.5,6-1.2c1-0.4,1-0.9,0.5-1.1
			c-1.1-0.4-2.3-0.6-3.5-0.7c-0.8-0.1-1.8-0.3-2.8-0.4c-0.5-0.1-1.1-0.2-1.5-0.3c-0.2,0-0.5-0.1-0.7-0.2l-0.3-0.1
			c-0.1,0-0.3-0.1-0.4-0.1c-1-0.1-2.1-0.2-3.1-0.4c-0.2,0-0.4-0.1-0.6-0.1l-0.7,0.1l-1.5,0.2c-0.1,0.1-0.1,0.1-0.2,0.2
			c-0.2,0.3-0.5,0.6-0.7,0.8c-0.2,0.2-0.5,0.5-0.9,0.8l-1.1,0.9c-1.6,1.3-4.4,3.5-9.5,7.4c1-0.6,2.9-1.8,5.2-3.3l3.6-2.3l4.2-2.7
			l1.4-0.4l0.7-0.2c0.1-0.1,0.2,0,0.3,0l0.3,0.1c0.9,0.2,1.8,0.3,2.7,0.4c0.7,0.1,1.5,0.3,2.3,0.3c0.4,0,0.8,0.1,1.2,0.2
			c0.1,0.1,0,0.1-0.4,0.2c-0.8,0.1-1.6,0.2-2.4,0.2l-0.7-0.1c-0.8,0-1.7-0.1-2.5-0.3c-0.5-0.3-0.9,0.1-1.3,0.3l-1,0.5l-3.9,2.8
			l-2.6,1.8c-1.5,1-2.6,1.7-3.6,2.3l-2.9,1.7c-1,0.6-2.2,1.3-3.9,2.1c1.1-0.4,1.4-0.5,1.1-0.1c-0.7,0.6-1.5,1.2-2.3,1.7
			c-0.7,0.4-1.4,0.8-2.1,1.1c-0.4,0.2-0.8,0.4-1.2,0.6l-0.6,0.3c-0.2,0.1-0.4,0.2-0.7,0.3c-2.1,0.7-4.3,1.2-6.5,1.6h-0.1v0.1
			l0.1,0.3l0.1,0.5c0.1,0.3,0.1,0.7,0.2,1c0.1,0.6,0.3,1.2,0.4,1.8c0.2,1.1,0.4,2,0.6,2.7c0.3,1.4,0.6,1.9,0.8,1.1
			c-0.1-1.1-0.3-2.2-0.4-3.3c-0.1-0.6-0.2-1.1-0.3-1.7c-0.1-0.3-0.1-0.6-0.2-0.8l-0.1-0.4v-0.2v-0.1h0.1c3.2-0.5,6.3-1.4,9.2-2.7
			c0.2,0-1.1,0.7-1.9,1.2S234.9,582.4,237.2,581.7z"/>
		<path class="st1" d="M281.6,558.6c1.5-0.9,3-1.9,4.5-3c-2.3,1.6-4.8,3-7.5,4c-1.4,0.5-2.8,1-4.3,1.3c-1.7,0.4-3.4,0.7-5.2,0.8
			c-1.6,0.3-3.2,0.5-4.8,0.7c-1.4,0.1-1.7,0.1-2.4,0.2c-2.2,0.1-2.9,0.2-3.3,0.2h-0.5c-0.2,0-0.3,0.1-0.5,0.1l-0.7,0.2
			c-0.2,0.1-0.5,0.2-0.7,0.3l1.3-0.3l0.6-0.1h0.6c1,0.1,2.1,0.1,3.2,0c0.8,0.1,1.6,0.1,2.5,0.1c1,0,1.9-0.1,2.8-0.2
			c1.9-0.2,3.7-0.5,5.5-0.9c3.7-0.9,7.2-2.4,10.4-4.4L281.6,558.6z"/>
		<path class="st1" d="M310.8,545c-2.6,2-5.4,3.7-8.2,5.3c-0.8,0.4-1.6,0.9-2.3,1.5c-0.1,0.2,0.6,0.2,2.7-0.4
			c2.8-1.2,5.6-2.6,8.2-4.2c1.8-1.1,2.9-1.8,3.7-2.4c1.7-1.3,2.7-2.1,7-5.1c-5.8,3.8-8.4,5.2-9.2,5.6s0.3-0.3,1.5-1.1
			c0.9-0.6,1.8-1.2,2.6-2c0-0.2-1.3,0.6-5.7,2.9c4.6-2.7,8.7-5.4,12.6-8c-4.2,2.7-8.4,5.1-12.3,7.1l0.6-0.3l0.1-0.1l0,0
			c1.1-0.5,1.4-0.6,0.3,0c-0.1,0.1-0.4,0.2-0.5,0.3C311.5,544.4,311.2,544.7,310.8,545c-3.5,1.8-3.8,1.8-3,1.3s2.8-1.6,3.9-2.3
			c0.1-0.1,0.2-0.2,0.2-0.3h-0.1c-3.3,2-6.7,3.8-10.2,5.3c-1.7,0.8-3.3,1.4-5.1,2c-2.1,0.7-4.3,1-6.5,1c-0.9,0.7-1.7,1.4-2.5,2.1
			l-1.6,1.3l1.3-1l2.8-2.3c1-0.1,2,0,3.2-0.2l0.8-0.1l0.9-0.2c0.6-0.1,1.3-0.3,2-0.5s1.5-0.5,2.3-0.8
			C303.3,549,307.1,547.1,310.8,545z"/>
		<path class="st1" d="M397.4,444.4c-0.3,0.9-0.3,0.8-0.4,0.9C396.7,447,396.6,447.7,397.4,444.4z"/>
		<path class="st1" d="M394.3,455.6c0.4-2,0.5-3.8,2-10.2c1.4-5.6,0.4,0.1,0.7-0.1c0.2-1.4,0.5-3.6,0.7-5.2l0.3-3.3l1.2,3.2
			c0.9,2.3,1.4,3.5,0.6-0.2l-1.3-5.5l-1.4,5.7c-0.2,0.9-0.5,2.1-0.9,3.6l-0.3,2c-1.3,5.5-3.2,11.7-4.7,16.3
			c-0.4,1.2-0.8,2.4-1.1,3.3c-0.1,0.3-0.1,0.6-0.1,0.9c0,0.3,0,0.4-0.1,0.6l-0.2,0.9c-0.3,1.1-0.5,1.5-0.4,1.1l0.5-1l0.4-1l0.1-0.3
			l0.1-0.4c0-0.3,0.1-0.6,0.2-0.9l0.3-0.8l0.3-0.7C392,461.6,393,459.2,394.3,455.6z"/>
		<path class="st1" d="M363.8,511.4c-0.5,0.4-1,0.9-1.5,1.3l-2.3,1.8c-1.5,1.2-3.1,2.4-4.6,3.6c-3.1,2.3-6.3,4.7-9.4,7
			c3.4-2.1,6.8-4.2,10.2-6.3h-0.8c2.7-1.9,4.6-3.3,5.8-4.3c0.6-0.5,1.1-0.9,1.5-1.3c0.2-0.2,0.4-0.4,0.6-0.7
			C363.9,511.9,363.5,511.9,363.8,511.4z"/>
		<path class="st1" d="M251.3,565.8l1-1.3c0.1-0.1,0.2-0.2,0.3-0.3l0.5-0.5l1-1l-1.2,0.9l-0.5,0.4l-0.3,0.3l-1.3,1.1l-2.6,2.2
			l-5.1,4.5L251.3,565.8z"/>
		<path class="st1" d="M222.7,580.7c-0.4-0.8-0.8-1.7-1.3-2.5c0.5,2.4,1,5,1.5,7.3l0.3,1.8l0.2,1.7l0.3,2.5v-0.8v-0.4v-0.7
			c-0.1-1-0.1-1.9-0.2-2.9C223.3,584.6,223,582.6,222.7,580.7z"/>
		<path class="st1" d="M232.8,511.7l2.9-1.5l1.4-0.8c0.5-0.3,0.9-0.6,1.4-0.8c-1.3,0.8-2.4,1.4-3.4,1.9L232.8,511.7z"/>
		<path class="st1" d="M191.6,493.8l-1.5-0.6C193,494.9,194.2,495.7,191.6,493.8z"/>
		<path class="st1" d="M149.7,446c9.1-4.4,19.5-8.9,18-9.1l-3.1,0.8C158.5,441.3,153.8,443.9,149.7,446z"/>
		<path class="st1" d="M31.4,688.3c-0.4-0.9-0.8-1.8-1.2-2.7c-0.7-1-1.4-2-2-3s-1.2-1.9-1.7-2.8C27.8,682.4,29.5,685.3,31.4,688.3z"
			/>
		<path class="st1" d="M38,692.4c0.5,0.9,1.1,1.8,1.7,2.7l1.7,2.7c1.3,1.8,2.4,3.6,3.8,5.3C43.5,700.7,41.1,697.3,38,692.4z"/>
		<path class="st1" d="M322.6,481.1c0.3-0.3,0.6-0.6,0.8-0.9l0.1-0.2l0.1-0.1l0.2-0.1l0.4-0.3l1.6-1.1c-1.3,0.7-2.8,1.5-2.5,1.4
			c-0.1,0.1-0.2,0.1-0.3,0.2c-0.1,0.1-0.3,0.2-0.3,0.4C322.6,480.6,322.8,480.8,322.6,481.1z"/>
		<path class="st1" d="M76.5,789.5c-5.9-3.6-11.4-7.7-16.4-12.3C67.2,784.2,73.9,788.9,76.5,789.5z"/>
		<path class="st1" d="M214.5,522.8l2.3-0.1l1.4-0.1c0.8-0.1,1.4-0.1,1.9-0.2c1-0.1,1.4-0.2,1.3-0.3l-2.9,0.2l-2.4,0.2
			C214.5,522.6,213.8,522.7,214.5,522.8z"/>
		<path class="st1" d="M43.9,759.5c0.8,1.3,1.7,2.4,2.6,3.6c4.2,5,8.7,9.7,13.6,14.1C54.8,772,49.3,765.7,43.9,759.5z"/>
		<path class="st1" d="M494.1,314c-0.1-0.7-0.1-1.6-0.2-2.3C493.8,311.6,493.9,312.6,494.1,314z"/>
		<path class="st1" d="M560.8,290.3c-0.9-2.7-2.2-7.1-3.6-11.2c0.3,1,0.7,2.4,1.3,4.2L560.8,290.3z"/>
		<path class="st1" d="M207.4,703.4C209.4,697.4,207.7,702.4,207.4,703.4z"/>
		<path class="st1" d="M218.7,674.4c-0.2,0.9-0.3,1.7-0.1,2.6C218.5,676.1,218.6,675.3,218.7,674.4z"/>
		<path class="st1" d="M10.9,705.2c-0.1-0.2-0.1-0.3-0.2-0.5C11.1,706.6,11,706.3,10.9,705.2z"/>
		<path class="st1" d="M210.8,694.5c-0.8,2.2-1.7,4.8-2.7,7.6c0.2-0.6,0.6-1.5,1-2.7S210.1,696.6,210.8,694.5z"/>
		<path class="st1" d="M210,695.7l0.9-2.8c0.3-0.9,0.5-1.7,0.7-2.4c0-0.4,0-0.4-0.2,0.3S210.7,693,210,695.7z"/>
		<path class="st1" d="M204.4,711.7c0.7-1.7,1.3-3.3,1.9-4.9s1.2-3.1,1.8-4.6c-0.5,1.2-0.7,1.6-0.6,1.3l-1.1,3.3
			C205.8,708,205.1,709.6,204.4,711.7z"/>
		<path class="st1" d="M423.1,434.7c0.1,0.4,0.2,0.9,0.3,1.3C425.7,442,424.8,439.4,423.1,434.7z"/>
		<path class="st1" d="M202.1,431.4l0.6-0.5l-0.8,0.6L202.1,431.4z"/>
		<path class="st1" d="M182.9,445.4c1.9-1.6,3.7-2.9,5.4-4.1s3.2-2.3,4.7-3.3c3.1-2.1,5.9-4.1,9-6.5l-3.9,1.5
			c-1.3,0.5-2.6,0.9-3.9,1.3C190.4,438.1,186.6,441.7,182.9,445.4z"/>
		<path class="st1" d="M285.3,483.9c0.2-1.1,0.3-2.1,0.5-2.9v-0.2v-0.1c0,0,0-0.1,0-0.2v-1l0.1-2.1c0-1.4,0.1-2.8,0.1-4.2
			c0.4,3.6,0.6,8.9,0.7,8.1c0.1,0.4,0.2,0.7,0.3,1s0.1,0.2,0.1,0.2c0.1-0.1,0.2-0.2,0.2-0.3c0.1-0.2,0.1-0.3,0.3-0.5
			c0.1-0.3,0.3-0.6,0.5-0.9l0,0c-0.4,0.5-0.6,0.8-0.8,0.8s-0.3-0.3-0.4-0.8c-0.1-1.5-0.1-3-0.2-4.7s-0.2-3.6-0.3-5.6
			c-0.2-4.2-0.7-8.5-1.4-12.6c-0.3-1.2-0.6-2.4-1-3.6c-0.5-1.5-1.2-3-2.1-4.3c-0.7-1.1-1.7-1.9-2.7-2.6c-0.7-0.5-1.5-0.8-2.4-1
			c-0.4-0.1-0.9-0.2-1.4-0.3c-0.4,0-0.8,0-1.3,0c-1.7,0.1-3.3,0.6-4.6,1.6c-1.2,0.8-2.1,1.9-2.8,3.2c-0.4,0.8-0.8,1.7-1,2.7
			c-0.2,0.7-0.3,1.4-0.4,2.1c-0.1,0.6-0.1,1.3-0.1,1.8c0,0.3,0,0.6,0,0.8v0.7c0,1.6,0,3.1,0,4.6c-0.2,2.8-0.2,5.2-0.4,7
			c-0.2,1.1-0.1,2.2,0.2,3.2c-0.9,3.2-2,6.3-3.4,9.3c0.3-0.6,0.5-1.1,0.7-1.6s0.2-0.9,0.4-1.2c0.2-0.8,0.4-1.6,0.9-2.9
			c-0.9,2.2-1.5,4.1-2.3,5.6c-0.4,0.8-0.6,1.5-0.9,2.2s-0.6,1.3-0.9,1.8s-0.5,1.1-0.7,1.7s-0.5,1-0.7,1.5c-0.5,1-0.9,1.9-1.4,2.8
			l-1.7,3c-0.7,1-1.6,2.2-2.6,3.5c-3.2,3.5-6.9,6.5-11,8.8c-1.8,1-3.6,1.9-5.4,2.7c-1.3,0.6-2.5,1.1-3.9,1.5
			c-1.8,0.6-1.9,0.4,0.8-0.9l-2.3,1l-1.1,0.5l-0.5,0.3l-0.5,0.1l-1.2,0.1l-2.6,0.1l-5.2,0.3l-2.5,0.1l-1.2,0.1l0,0
			c-0.4-0.4-0.8-0.7-1.2-1.1l-0.4-0.4c-0.1-0.1-0.1-0.2-0.1-0.2c0.2,0.1,0.5,0.2,0.7,0.4c0.4,0.3,0.8,0.5,1.1,0.8h0.6h-0.6
			l-10.5-8.7l-6.2-5c-1.4-1.1-3-2.4-4.6-3.6s-3.1-2.3-4.6-3.4l0.3,0.1c-0.5-0.3-1-0.6-2-1.3c-0.5,0.4-1,0.3-1.7,1.3l-1.9,2.5
			c-0.2,0.2-0.3,0.4-0.4,0.7l-0.3,0.7l-0.6,1.5l-0.6,1.5c-0.2,0.5-0.4,1.1-0.5,1.6c-0.2,1.2-0.5,2.5-0.7,3.7
			c-0.1,0.6-0.2,1.2-0.3,1.8l-0.2,1.2c-0.3,1.5-0.5,3-0.7,4.1c-2.2,7.9,0.6-4.1-0.2-2.1c-1.1,5.8-2.2,11.7-3.1,17.5
			c-2.1,7,0.1-7.7,3-19.6c-2.4,5.6-4,11.5-4.8,17.5c-0.5,3-1,6.7-1.9,11.8c-0.4,2.6-1,5.5-1.6,8.9c-0.1,0.4-0.1,0.9-0.2,1.3
			c-0.1,0.7-0.2,1.4-0.3,2.1l-0.4,2.3l-0.2,1.2l-0.1,0.6c0,0,0,0.1,0,0.1l0.1,0.1l0.2,0.2l3.4,3.6l0.7,0.8l0.5,0.6
			c0.4,0.4,0.7,0.8,1,1.2c-1-1-1.6-1.6-3.6-3.6l-2.5-2.5l-0.3-0.3c0-0.1,0-0.3,0-0.4l0.1-0.9l0.2-1.8l0.7-5.6l0.6-4.2
			c-0.4,1.3-0.8,2.7-1.2,4.1c-0.2,0.7-0.4,1.4-0.5,2.2c-0.3,1.3-0.5,2.6-0.7,4c-0.1,0.7-0.2,1.4-0.4,2.1l-0.1,0.5v0.3
			c0,0.1,0.1,0.1,0.1,0.2l0.7,0.8l3,3.2l1.2,1.3l0.8,0.9c0.5,0.6,1.1,1.2,1.6,1.9c5.1,5.8,9.6,12.1,13.4,18.8
			c-0.5-0.9-1.7-3.4-3.4-6.2c-0.4-0.7-0.8-1.5-1.3-2.2l-1.4-2.2c-0.5-0.7-0.9-1.5-1.4-2.2l-1.4-2c-1.7-2.6-3.2-4.6-3.3-5.1
			c-0.1-0.3,0.2-0.2,0.9,0.4c1.2,1,2.3,2.2,3.4,3.4c3.2,4.2,7.5,9.6,12.9,17.9c-0.8,0.6,4.5,8.8,7.7,20.3l-1.4-0.5
			c1,3,1.4,5.3,1.9,7s0.7,3,1,4.2c0.6,2.5,1.1,5.1,1.3,7.6c0,1.8-0.1,3.5-0.1,5s-0.3,2.8-0.4,4s-0.3,2.3-0.5,3.2s-0.4,1.8-0.5,2.5
			c-0.3,1.2-0.7,2.4-1.1,3.5c-0.4,0.9-0.7,1.7-1.1,2.5c-0.3,1.4-0.5,2.6-0.7,3.6l-0.5,2.3c-0.2,1.2-0.3,1.7-0.2,1.7
			c0.6-1.1,1-2.2,1.4-3.4c0.6-1.7,1.1-3.2,1.2-2.6c0,0.9-0.1,1.8-0.3,2.7c-0.2,0.8-0.4,1.8-0.6,3c-0.1,0.6-0.3,1.3-0.4,2
			s-0.4,1.5-0.6,2.3c-0.7,2.3-1.5,4.5-2.3,6.7c-0.4,1.1-0.8,2.1-1.2,3.2l-0.6,1.6l-0.6,1.5l-1.3,3c-0.4,1-0.9,2-1.4,3
			c-0.9,2-1.9,3.9-2.9,5.9c-2.1,3.9-4.3,7.9-6.9,12.1c-1.3,2.1-2.8,4.2-4.3,6.5c-0.8,1.1-1.6,2.2-2.4,3.3l-1.3,1.7l-1.4,1.7
			c-1.2,1.3-2,2.2-2.6,2.8s-1,1-1.2,1.1c-0.4,0.3-0.1-0.2,0.4-0.9c1-1.4,2.7-3.7,0.9-1.9c-1.2,1.7-2.5,3.2-3.7,4.8s-2.6,3.1-4,4.6
			c-2.3,1.9-1.7,1.1-1.5,0.6c-1.8,1.8-2.8,2.7-3.3,3.3c-0.4,0.4-0.7,0.9-1,1.3c-0.6,0.8-1.6,2.3-8.3,6.7c-0.6,0.7-1.4,1.2-2.2,1.6
			c-0.5,0.3-1.2,0.6-1.8,1c-0.7,0.4-1.5,0.8-2.3,1.1c-4.1,1.7-8.3,3.1-12.7,4c-5.3,1.1-10.6,1.6-16,1.7c-5.5,0.1-11-0.2-16-0.6
			c-2.4-0.6-1.8-0.7-0.7-0.7s2.5-0.1,1.8-0.4c-5.1-0.6-10.1-1.6-15-3.2c-1.8-0.6-3.4-1.1-4.7-1.7s-2.7-1-3.8-1.6s-2.3-1-3.6-1.7
			s-2.5-1.3-3.9-2l-2.2-1.3c-0.8-0.5-1.7-1-2.5-1.5l-2.8-1.9l-3.2-2.3c-4.7-4.4-9-9.3-12.9-14.5c2.1,2.9,3,4.2,2.8,4.4
			s-1.4-0.7-3.1-2.4c-2.3-2.3-4.4-4.7-6.4-7.3c-1.2-1.5-2.5-3-3.6-4.7c-0.6-0.8-1.2-1.7-1.8-2.5l-1.7-2.6c1.7,3.9,3.7,7.6,5.9,11.2
			c-5.4-7-9.8-14.6-13.4-22.6c-1-3,0.4-0.7,2.6,3c-0.9-1.6-1.5-3.1-2.1-4.3c-1.5-4.5-1.5-5.6-0.9-4.9s1.9,3.3,3.5,6.2
			c1,3,2.1,5.9,3.3,8.7c3.7,5.3,7.8,9.7,7.6,8.2c-1.7-2.2-3.2-4.5-4.6-6.9c1,1.3,1.7,2.1,1.4,1.4c-0.4-0.8-0.8-1.5-1.4-2.2
			c-0.7-1.1-1.6-2.5-2.7-4.3c-0.4-2-0.8-3.9-1.1-5.8l-1-1.1c-3.8-10.3-6-21.1-6.3-32.1c-0.8-5.8-0.8-11.6-1-17.5c0.1-3,0.2-6,0.3-9
			c0-1.6,0.2-3.1,0.4-4.7c0.2-1.6,0.3-3.2,0.5-4.8l0.3-2.5c0.1-0.8,0.3-1.6,0.4-2.5c0.3-1.7,0.6-3.4,1-5.1c0.2-0.9,0.3-1.8,0.5-2.6
			s0.5-1.8,0.7-2.7c0.5-1.8,1-3.6,1.5-5.5c0.3-0.9,0.5-1.9,0.8-2.8l1-2.8l2.2-5.9c0.3-1,0.8-2,1.3-3l1.4-3.1l1.4-3.2
			c0.3-0.5,0.5-1.1,0.8-1.6l0.9-1.6c-0.7,1.3-1.1,2.8-1.4,4.3c-0.1,0.7,0.1,0.8,0.5,0.6c0.7-0.3,1.8-1.7,2.3-1.2
			c-1.6,2.6-3.1,5.4-4.5,8.2c-0.8,1.6-1.4,3.4-2.1,5.2s-1.5,3.8-2.1,5.8l-1.8,6.3c-0.3,1.1-0.6,2.2-0.9,3.3s-0.5,2.3-0.7,3.4
			c-0.5,2.3-1,4.6-1.5,7s-0.8,4.8-1.2,7.2c1.9-10.1,2-7.7,1.8-5.1c1.8-11.5,4.9-22.8,9.3-33.6c0.3,0.6,1.3-1,2.7-3.8
			c0.7-1.3,1.5-3,2.5-4.8s2.2-3.6,3.4-5.6c-1.3,1.2-1.2,0.4-0.2-1.8c0.2-0.5,0.5-1.2,0.9-1.8l1.3-2.2c1-1.6,2.1-3.4,3.3-5.3l0.9-1.5
			c0.3-0.5,0.7-1,1.1-1.5l2.2-3l2.3-3l1.1-1.5l1.2-1.5c3.3-3.8,6.2-7.6,8.7-10.2c0.6-0.1,0.4,0.6-1.5,2.9c-0.9,1.1-2.1,2.8-3.9,4.9
			l-3,3.6c-0.6,0.7-1.2,1.4-1.7,2.2s-1.2,1.6-1.9,2.5c3.1-3.7,5.8-6.5,8-9.3l1.6-2c0.5-0.7,1-1.3,1.5-1.9c1-1.2,2-2.5,3-3.7l2.9-3.7
			l0.8-0.9l0.8-0.9l1.8-1.8c1.2-1.3,2.6-2.5,4.1-3.9c0.8-0.7,1.5-1.4,2.4-2.1s1.8-1.4,2.8-2c-3.3,2.7-5,4.3-6,5.7
			c0.9-0.9,1.9-2,3.1-3.1s2.5-2.2,3.9-3.4c2.8-2.3,5.7-4.8,8.4-6.8c5.4-3.9,9.3-6.5,7.2-4.6l-3.4,2.6l4.6-3.4l5.2-3.5l5.5-3.8l6-3.8
			c8.1-5.2,16.7-10.7,24.6-15.9c15.8-10.3,28.8-19.2,30.2-21.1c0.4,0-2.1,3.8-3.4,5l20.1-16.2c3.4-2.7,6.6-5.6,9.6-8.6
			c3-3,5.7-6.3,8.3-9.7c-1,2.1,2.1,0.7,3.5,0.8c0.7,0.1,1,0.6,0.1,2.3c-0.7,1.2-1.6,2.3-2.4,3.4c-1.6,1.9-3.4,3.6-5.2,5.3
			c8.2-6.4,15-14.4,20.1-23.4c-0.7,1.1-1.5,2.1-2.4,3c-0.7,0.8-1.5,1.5-2.4,2.2c-1.4,1-1.8,0.8,0-1.9l2-2.4l1.6-2.1
			c1-1.3,1.7-2.4,2.4-3.4c1.4-1.9,2.2-3.4,3.1-5c0.5-0.8,0.9-1.6,1.4-2.6s1.1-2,1.7-3.3s1.4-2.8,2.1-4.6c0.2-0.5,0.4-0.9,0.6-1.4
			l0.3-0.8c0.1-0.3,0.3-0.6,0.4-0.9c0.3-0.7,0.5-1.4,0.6-2.2c0.2-0.9,0.3-1.9,0.4-2.9c0,0,0-0.1,0-0.3v0.3c0,1-0.2,1.9-0.5,2.8
			c-0.2,0.5-0.4,0.7-0.5,0.6s-0.2-0.4-0.3-1s-0.1-1.4-0.3-2.4c-0.4-1.3-0.9-2.5-1.6-3.6l-0.7-1.2l-1,0.1c-0.7,0.1-1.5,0.2-2.4,0.3
			l-1,0.1l-0.4,0.6c-1.1,1.9-2.4,3.7-3.7,5.4c0.8-1.6-2.3-0.6-0.1-4c-4.8,7.7-10.1,15.1-15.9,22.2c2.2-2.6,2.1-3.1,0.8-2.5
			c-2.1,1.2-4.2,2.6-6.1,4.2c1.1-0.8-3,3.3-8.4,7.8c-2.7,2.3-5.8,4.6-8.5,6.5s-5.2,3.6-6.7,4.6c3.3-1.9,6.5-3.8,9.7-6
			c-3.1,2.3-5.8,4.1-8.2,5.8l-3.5,2.3l-3.2,2c-4,2.6-7.2,4.9-10.3,7.1c-8.3,6.1-17,11.6-26,16.5c3-2.3,6.6-7-7.2,0.5
			c-2.8,2.3-9.1,7.4-17.5,13.8s-18.5,14.6-28.7,23.4c-1.5,0.9-3,1.8-4.4,2.8c-5.1,4.7-10.1,9.5-14.8,14.5
			c6.6-8.5,13.9-16.4,21.8-23.7c4.9-4.5,10.2-9.1,15.4-13c1.3-1,2.6-1.9,3.9-2.9s2.5-1.8,3.8-2.7c2.5-1.7,4.8-3.3,6.8-4.7
			c-5.2,2.6-6,2.9-7.4,3.6c-0.7,0.4-1.6,0.8-3.2,1.8s-4,2.4-7.7,4.9c-2.8,1.5-0.9-0.1,2.3-2.3c1.6-1.1,3.5-2.4,5.3-3.5
			s3.6-2.2,4.7-2.9c-12.1,6.8-23.6,14.6-34.4,23.3c0.6,0-0.6,1.3-2.7,3.3s-4.9,4.8-7.7,7.6c-5.6,5.6-10.9,11.6-9.9,11.4
			c10-11.2,20.9-21.4,32.8-30.6c0.6,0-0.4,1.1-2.3,3.2s-5.1,4.9-8.8,8.5c-7.5,7.1-17.4,17.2-27,28c-2.6,2.6-2.2,1.2-1.2-0.9
			s2.7-4.8,2.3-4.7c-1.1,1.6-5.6,6.9-9.7,12.3c-1.1,1.3-2,2.7-3,4s-1.9,2.5-2.7,3.6c-1.6,2.2-2.8,3.8-3.2,4.3l3.3-5.3
			c1.1-1.7,2.3-3.4,3.5-5.2c-4.6,5.7-8.7,11.8-12.2,18.2c-3.5,6.2-7,12.8-11.6,21.5l-2.7,5.4c-1,2-2,4.2-2.9,6.2
			c-1.8,4-3.1,7.5-2.8,8.2c2.3-5.2,5-7.7,6.8-8.1s2.6,1.3,2.1,4.8c-2.3,5.9-4.2,11.9-5.7,18.1c-0.3,1.1-0.5,2.3-0.8,3.4
			s-0.5,2.3-0.7,3.4c-0.4,2.3-0.8,4.5-1.1,6.5c-0.6,4.1-1.2,7.5-1.5,9.4c-1.1,5.4-1.4,1.3-1.8-3.1s-0.5-8.9-1.5-4.3
			c0.3,0.4,0.2,6.5,0.1,9.1c-0.4,3.5-0.7,2.7-0.9,3s-0.6,1.6-0.9,9.2c0.6,1.3,0.1,9.1,0,13.6c-0.1,2.2-0.1,3.7,0,3s0.2-3.4,0.8-9.3
			c-0.1,3.8-0.1,6.6-0.1,9.1s0,4.5,0,6.7c0,5.9,0.3,11.8,1,17.7c0-1.4,0.4-1.2,0.9,0.3s1.1,4,2,7.1c1.6,6.3,4,15,6.2,22.1
			c-0.3-0.4-0.3,0.3-0.3,1.2s0.3,2.2,0.4,3c1.9,6.6,4.2,13.1,6.8,19.4c1.1,2.9,2.4,5.6,3.6,8.3c0.6,1.3,1.3,2.6,1.9,3.9
			s1.3,2.6,1.9,3.8c1.4,2.5,2.7,5.1,4.2,7.5c0.7,1.2,1.4,2.5,2.2,3.8l2.4,3.8c1.6,2.6,3.5,5,5.3,7.7c0.9,1.3,2,2.6,3.1,3.9
			s2.1,2.7,3.3,4c0.8,1.1,3.3,4.3,5.4,6.5s3.3,3.9,1,2l1.2,1l1.3,1l2.8,2.1c0.5,0.4,1,0.8,1.6,1.3l1.9,1.4c1.4,1,2.8,2.2,4.7,3.3
			c6.8,5.3,2.7,2.6-1.9-0.4c-2.2-1.6-4.5-3.3-5.7-4.1c-0.5-0.4-0.8-0.5-0.7-0.3c0.2,0.3,0.3,0.5,0.5,0.7c0.3,0.3,0.8,0.8,1.4,1.4
			c1.3,0.6,2.6,1.3,3.7,2.2c1,0.7,2.3,1.4,3.6,2.2l2,1.3c0.7,0.5,1.5,0.8,2.3,1.3c6.5,3.6,13.4,6.4,20.6,8.2
			c-1.7-1.2-8.7-3.2-16.1-7l-5.7-3l-5.5-3.5c-1.7-1.2-3.4-2.4-5-3.5s-2.9-2.3-4.1-3.3c0.3-0.3,1.6,0.3,3.7,1.6
			c1.1,0.7,2.5,1.4,4,2.3c0.8,0.5,1.6,1,2.5,1.5l2.8,1.5c4.7,2.6,9.5,4.9,14.6,6.7c6.3,2.3,12.8,4,19.4,4.9c1.4,0.2,2.7,0.4,3.8,0.6
			l3.1,0.3l2.4,0.3c0.7,0.1,1.3,0.1,1.8,0.1c2.1,0.1,2.7,0.3,2.8,0.5c0.1,0.3-2.2,0.5-0.2,0.5c4.7,0.2,9.3-0.3,13.8-1.4
			c3.3-0.9,6.6-2.2,9.7-3.8c4.3-2.2,8.3-4.9,11.9-8.1c3.1-2.7,5.9-5.4,9.5-9s8-8.2,13.8-15c1.4-1.6,2.8-3.1,4.4-4.5
			c0.7-0.5,0.7-0.1,0.6,0.5c-0.3,1.3-1.6,3.7-0.3,2.7c-4.6,6.4-9.8,12.3-15.5,17.6c-4.6,4.2-9.6,8-14.8,11.5c4.5-2.8,8.7-6,12.7-9.5
			c-2.9,3-6.1,5.8-9.4,8.3l-1.4,1.1c-0.5,0.3-1,0.7-1.5,1c-1,0.6-2,1.3-3,1.9c-1.8,1-3.6,1.9-5.4,2.7c5.4-2.2,10.4-5.2,14.9-8.9
			c7.5-6,14.4-12.9,20.4-20.4c6.9-8.6,13.2-17.6,18.9-27c5.2-8.5,9.8-17.3,13.9-26.3c2.1-5.7,5.2-15.8,3.1-11.2
			c-0.6,1.7-1.1,3.4-1.8,5.1s-1.3,3.4-1.9,5c-1.2,2.2-1.3,2.1-1,0.9s1.2-3.5,1.9-5.6s1.4-4.3,1.5-5s-0.1-0.1-1.4,3
			c2.4-7.3,4.4-14.8,5.9-22.3c1.6-8.2,3.5-17.2,5.7-27.1l1.9-3.5c-0.4,0.4-3.3,12.9-4.2,18.6c0.6-4.2,2.7-11.7,4.4-19.5
			s3.2-15.6,3.1-20.3c-1,4.6-2,9.3-3.1,13.9c1-7.2,1.9-15.2,2.3-23.6c0.1-2.1,0.2-4.2,0.1-6.2V617l-0.1-1.7c0-1.1-0.1-2.2-0.1-3.3
			c-0.1-4.4-0.2-8.9-0.2-13.4c-0.3,2.2-0.5,4.5-0.4,6.7c0,3.4-0.2,6.8-0.6,10.2c0.4-2.8,0.7-1.2,0.8,2.2c0,4.6-0.4,9.3-1.1,13.8
			c-0.7,5.2-1.5,10.2-1.9,12.9s-0.1,2.9,1.1-1.4c-3.9,12.6-4.8,22.1-9.9,38.6c0.3-0.2,0.8-1.7,0.8-1.2c-0.1,0.8-0.2,1.7-0.4,2.5
			c-0.2,0.8-0.4,1.7-0.7,3s-0.7,2.7-1.2,4.5c-0.1,0.7-0.3,2.2-0.5,3.2l-0.3,1l0.3-0.8c-0.1,0.6-0.1,0.7,0.1-0.3c1.1-3.3,2-6,2.5-7.1
			c-0.4,3.7-2.2,11.2-4.7,18.7s-5.7,14.7-7.2,18.5c-4.1,7.9,1.2-3.5-1.3,0.6c-1.5,3.7-3.2,7.3-4.9,11c-1.3,0.7-13.3,19.4-3.1,1.3
			c-3.1,5.4-6.5,10.6-10,15.8c-3.4,4.4-7.3,9.6-11.3,14.4s-8.1,9.2-11.2,12.4c-6.2,6-16.3,14-10.6,9.3c-3.7,2.8-7.7,5.2-11.9,7.2
			c-4.1,1.9-8.5,3.3-13,4l-0.3-0.2c-0.8,0.1-1.7,0.2-2.5,0.3l-2.5,0.1c-0.9,0-1.7,0-2.6,0l-2.7-0.1c-1.8,0-3.6-0.2-5.3-0.3l-2.7-0.2
			l-2.7-0.4c-7.3-1.1-14.4-3.1-21.1-6c-7-3.1-13.5-7.1-19.4-12c-6.1-5.2-11.5-11-16.2-17.5c-0.8-0.9-1.6-1.8-2.3-2.8l-2.3-3
			c-0.8-1-1.6-2-2.3-3.1l-2.3-3.4c-1.6-2.3-3.2-5-4.9-7.9l-2.5-4.7c-0.9-1.6-1.7-3.4-2.6-5.2c-0.3-1.1-0.5-2.1-0.7-3.2
			c-3.5-7.2-6.4-14.6-8.7-22.2c-2.5-8-4.1-15.4-5-17.9c-0.2-3.4-0.9-8.8-1.7-15.3s-1.3-14.3-1.5-22.3s0.1-16.4,0.5-24.2
			s1.1-14.9,1.7-20.4l-0.9-0.9c0.8-7.4,2.2-14.8,4.1-22c2.1-8.2,5-16.1,8.4-23.8l-1.3,0.7c1.8-4.2,3.8-8.3,6.1-12.3
			c2.6-4.4,5.5-9,8.9-13.7c7.3-10,15.4-19.5,24-28.5c-1.1,1.4-2.2,2.8-3.5,4.1c-1.6,1.8-3.5,3.8-5.1,5.5
			c10.8-10.9,22.2-22.4,34.4-32.4c6-5,12.3-9.6,18.8-13.8c1.6-1,3.2-2,4.8-3s3.2-1.9,4.8-2.8c3.3-1.8,6.5-3.5,9.7-5.1
			c6-3.8,10.5-6.2,14.9-8.5c-0.6,0.3-1.1,0.6-1.5,0.9l2.5-1.4l8.8-4.5c-2.7,1.3-5.2,2.5-7.4,3.7c4.7-2.7,11.9-6.9,18.8-11.1l3.5-0.9
			l1.6-1c7.1-3.6,5.3-3.6,1.3-2.1c3.5-2.2,6.6-4.2,9-5.8c0.9-0.3,1.8-0.6,2.6-1c1-0.5,2-1,3.1-1.7s2.2-1.4,3.3-2.1s2.3-1.6,3.4-2.5
			c4.6-3.5,9.2-7.4,13.1-9.8c1.6-1.9,7.9-7.9,13.8-14.9c3-3.5,5.8-7.2,8.3-10.5c1.9-2.6,3.7-5.4,5.3-8.2l-2.1,1.1
			c0.8-0.1,1.6-0.2,2.4-0.5l-1.9-1.2l0,0c-0.1,0.2,0.2,1.3-0.3,0.1l2.3,1.3h-1.7h1.7l-2.3-1.4c0.1,0.3,0.3,0.7,0.4,1
			c0.1,0.3,0.1,0.7,0.2,1c-0.1,1.5-0.5,2.9-1.1,4.2c-0.7,1.7-1.3,3.4-2,5c-1.3,3.3-2.8,6.4-4.1,9.3c-0.9,0.9-1.9,1.8-2.9,2.6
			c-2.7,5.8-6.1,11.3-9.9,16.4c-1,1-2,2-3,2.8l-1.3,1.2l-1.2,1c-0.8,0.6-1.4,1.1-1.9,1.5c-0.4,0.3-0.8,0.5-1.2,0.8
			c-1.2,0.5,0-0.7,3.7-5.1c-3.4,3.9-7.2,7.5-11.3,10.6c-1.5,1.2-2.8,2.1-4,2.9l-3.5,2.3c-4.4,3-8.3,5.6-18.3,12.8l0.6-1.3
			c-7.4,4.7-18.6,13.1-23.4,15.4c-4.3,2.3-11.6,6.7-20.7,12.4c-4.6,2.9-9.6,6-15,9.4c-5.3,3.6-11,7.4-16.6,11.8
			c-11.8,8.8-22.7,18.7-32.8,29.5c-9.6,10.3-18,21.7-25.1,33.9c1.7-1.9,1.8-1.5,1,0c-0.4,0.8-1.1,1.9-1.9,3.2l-2.4,4.5
			c-0.9,1.7-1.8,3.4-2.7,5.1s-1.5,3.5-2.1,5c-1.2,3.1-2.1,5.4-1.8,6.1c-1.4,2.7-3.9,9.4-1.8,1.3c-0.5,1.6-0.9,3.1-1.4,4.6l-0.7,2.2
			l-0.3,1c-0.1,0.4-0.2,0.7-0.3,1.1l-2,8c-0.4,1.3-0.6,2.5-0.8,3.7s-0.4,2.4-0.6,3.6s-0.4,2.3-0.6,3.4l-0.3,1.7
			c-0.1,0.6-0.1,1.1-0.2,1.7c-0.2,2.2-0.5,4.4-0.7,6.5c-0.1,1.1-0.2,2.1-0.3,3.2v3.2c0,2.1,0,4.2,0,6.4v1.6l0.1,1.7
			c0.1,1.1,0.2,2.2,0.3,3.4c-0.5,3.1-0.9-5.7-1.2-3c0.1,2.2,0.8,8.5,0.9,11.2c0,1.4-0.2,0.4-0.5-1.4c-0.1-0.5-0.1-1-0.2-1.5
			s-0.1-1.1-0.2-1.7c-0.1-1.2-0.3-2.4-0.4-3.4c0.2,5.5,1,10.9,2.2,16.2c0.7,3,1.7,6,2.9,8.9c0.6,1.4,1.4,2.8,2.3,4
			c0.5,0.6,1.1,1.1,1.8,1.5c1.5,5.3,3.5,10.5,6.1,15.3c0.3,0.5,0.5,1,0.8,1.5s0.6,1,0.9,1.4c0.6,0.9,1.2,1.9,1.8,2.8
			c1.3,1.8,2.7,3.6,4.3,5.4c0.6,1,1.2,2.2,1.8,3.2c0.4,0.6,0.8,1.3,1.1,2c0.2,0.5-1.5-1-6.2-7.9l1.2,2l1.7,2.5
			c1.2,1.8,2.8,3.9,4.6,6.3c4,5.1,8.4,9.8,13.2,14.2c4.5,4,9.3,7.6,14.5,10.6l2.9,1.6c0.9,0.5,1.7,0.8,2.3,1.1
			c0.7,0.4,1.5,0.7,2.3,0.8c2.3,1.3,4.8,2.4,7.3,3.3c1.4,0.5,2.9,1,4.3,1.3c1,0.3,2,0.6,3,0.8l3.6,0.9l3.3,0.7l1.5,0.3l1.4,0.2
			l2.7,0.4c3,0.4,6.1,0.6,9.2,0.6c1.4,0.1,2.8,0,4.3,0l2.3-0.1c0.8-0.1,1.6-0.2,2.5-0.2l2.7-0.3l2.9-0.5c2.1-0.3,4.3-0.9,6.9-1.5
			c-1.9,0.3-3.8,0.8-5.7,1c1-0.3,2-0.8,3-1.1s2-0.6,3.1-1c2.1-0.8,4.4-1.4,6.9-2.3c6.3-2.2,12.3-5.3,17.7-9.2l-0.3,0.4
			c1-0.7,2-1.3,2.8-1.9l2.5-1.8c1.6-1.1,2.9-2.3,4.1-3.3l1.7-1.4l1.4-1.3l2.4-2.3c1.4-1.4,2.4-2.5,3.2-3.4s1.5-1.7,2.1-2.5
			c1.3-1.6,2.6-3.1,4.9-6.1s5.9-7.4,11.1-15.2l-1.9,1.2c0.1-0.8,0.4-1.6,0.8-2.4c0.5-1.1,1.2-2.4,2.1-4s1.9-3.4,3-5.3
			c0.6-1,1.1-2,1.7-3.1s1.2-2.2,1.7-3.4c2.5-5.1,4.6-10.3,6.4-15.7c1.8-5.5,3-11.1,3.6-16.9l-0.9,3.8l-1,3.8
			c0.9-5.8,2.6-13.9,3.6-22.2c0.3-2.1,0.4-4.2,0.5-6.3c0.1-1,0-2.1,0.1-3.1s0-2,0-3c-0.1-2-0.2-3.9-0.5-5.7l-0.4-2.6
			c-0.1-0.8-0.3-1.6-0.5-2.4c-0.3-1.3,0.1-0.3,0.6,1.5c0.3,0.9,0.5,2,0.8,3.1s0.5,2.2,0.7,3.2c-0.1-1-0.3-2-0.4-2.9
			s-0.3-1.7-0.4-2.5c-0.3-1.6-0.7-2.9-0.9-4.1c-0.2-1-0.5-2-0.8-3c-0.3-0.8-0.5-1.5-0.7-2c-0.2-0.7-0.5-1.4-0.9-2
			c-0.2-0.3-0.3-0.3-0.5-0.3s-0.4,0.4-1.1-0.7s-1.8-3.6-4.5-8.8c-0.7-2.1,0.3-1,0.6-1.3s0-1.8-4.2-8.7c-1.9-3.2-4-6.1-6.4-8.9
			c-0.8-1-1.6-2-2.6-3.1l-3.1-3.2c-1-1.1-2.1-2.2-3.2-3.3c-0.6-0.6-1.1-1.1-1.7-1.7l-0.9-0.8l-0.4-0.4c-0.1-0.1-0.1-0.1-0.2-0.2
			c-0.4-0.5-1.2-0.8-1-1.5v-0.5v-0.2c0-0.1,0-0.3,0-0.4l0.3-2.4c0.4-3.2,0.9-6.5,1.5-9.7c1-5.9,2.3-11.7,3.9-17.4
			c-1.5,4.4-3,8.7-1.1-1.7c0.3-1.5,0.7-3.1,1.1-4.8c0.2-0.8,0.4-1.7,0.6-2.6c0.1-0.4,0.2-0.9,0.3-1.3l0.1-0.5l0.1-0.4
			c0.3-1,0.6-2.1,0.9-3.1l0.2-0.7c0.1-0.2,0.4-0.4,0.5-0.6l0.6-0.5l0.1-0.1c0,0,0,0,0.1,0l0.2,0.1l0.3,0.3c0.6,0.5,1.2,1,1.8,1.5
			l1.7,1.5l1.2,1.1l1.6,1.4l3.1,2.7c2.1,1.8,4.1,3.5,6.1,5.1c1,0.8,1.9,1.6,2.9,2.3c1.3,1.1,2.6,2.1,3.9,3c2.3-0.1,4.7-0.3,5.7-0.5
			c2.1,0.1,2.9,0.2,2.9,0.3l5.3-0.3l3.7-0.2c0.2,0,0.4-0.1,0.6-0.2l0.5-0.2l1-0.5l1.6-0.7c2.2-0.9,4.3-2,6.5-3.2
			c1.1-0.6,2.2-1.3,3.2-1.9l1.6-1c0.5-0.3,1-0.7,1.5-1.1c3.8-2.6,7.3-5.6,10.5-9c2.1-2.3,3.9-4.8,5.5-7.5c0.7-0.7,1.4-1.4,2-2.1
			c0.4-0.5,0.8-1,1.2-1.5c0.4-0.6,0.8-1.2,1.1-1.9s0.8-1.4,1.2-2.1l1.1-2.4c0.8-1.8,1.5-3.6,2.1-5.5c0.3-1,0.6-2,0.8-3
			c0.2-1,0.5-2.1,0.7-3.2s0.3-2.2,0.5-3.3c0.1-0.6,0.2-1.1,0.3-1.7l0.1-1.7c0.1-1.1,0.2-2.3,0.3-3.5s0-2.3,0.1-3.5v-3.3
			c0-0.8,0.1-1.6,0.3-2.3c0-0.1,0.1-0.2,0.1-0.3s0,0,0,0s-0.1-0.1-0.1-0.1l-0.2-0.1c0,0-0.1-0.1-0.1-0.1c0,0-0.1-0.1-0.1-0.1
			c0-0.1,0,0,0-0.1c0,0,0,0.1,0,0.1c0,0.1,0.1,0.2,0.1,0.4c0,0.1,0,0.2,0,0.2l0,0v-0.8c0,0,0-0.1,0-0.1l0,0.1l-0.1,0.1
			c0,0.1-0.1,0.1-0.1,0.2l-0.1,0.2l0,0c0,0,0,0,0.1,0c0.1,0.1,0.1,0.2,0.2,0.2c0.4,0.7,0.8,1.4,1,2.1c0.3,0.9,0.5,1.8,0.7,2.7
			c0.7,3.4,1.1,6.9,1.3,10.4c0.3,6.2,0,10.2-0.8,10.2c0.1,2.9,0,5.9-0.3,8.8c0,0.4-0.2,0.9-0.3,1.3s-0.1,0.8-0.3,1.4l-0.8,3
			c-0.5,2.1-1.2,4.5-1.9,7c0.8-0.2,1.6,0,2.3,0.3c0.2,0.1,0.3,0.3,0.3,0.5v0.1c0,0,0,0,0,0l0.1-0.1l0.5-0.3l1-0.5
			c2.6-1.4,5.1-2.7,7.5-4.2c1.2-0.7,2.4-1.6,3.6-2.4s2.4-1.8,3.5-2.9c1.2-1.1,2.3-2.2,3.4-3.4c0.5-0.6,1.1-1.3,1.6-1.9
			c0.4-0.5,0.7-1,1.1-1.5l-0.4,1.1c3.4-4.5,6-9.6,7.6-15c1.1-3.8,1.8-7.7,2.2-11.6c0.4-5.1,0.5-10.1,0.3-15.2c0.4-5.7,0.5-1.5,0.7-1
			c0.2-3.9,0.3-7.4,0.3-10.2l-2.2,3.2l3-1.1h-2.4c0.7,0.4,1.3,0.9,1.8,1.5c0.3,0.4,0.5,0.8,0.8,1.2s0.5,0.9,0.6,1.4
			c0.7,1.9,1.3,3.9,1.6,5.9c0.6,3.8,0.9,7.6,1,11.4c0.1,3.8,0.1,7.6,0,12.1c0,1.1,0,2.3-0.1,3.5c-0.1,1.5-0.1,3.1-0.2,4.8
			c-0.1,3.2-0.2,6.7-0.4,10.5c-0.5,1.6-0.9,3.3-1.4,5.1c0,0.6,0,1.4-0.1,2.4c0,0,0,0.1,0,0.1l0.1,0l0.2-0.1l0.4-0.2l0.8-0.4l1.8-0.8
			l9.3-4.2l2.8-1.4l1.5-0.7l1.2-0.6c1.5-0.7,3-1.5,4.6-2.4c3.2-1.7,6.6-3.6,10.1-5.8s7.2-4.6,10.8-7.3c0.5-0.3,0.9-0.7,1.4-1
			l1.6-1.3l2-1.6l1-0.8l0.5-0.4c0.1,0,0.1-0.2,0.1-0.3v-0.3V464v-2.1l0.1-0.1l0.6-0.6l2-2.1c0.8-0.9,1.5-1.7,2.3-2.6
			c1.5-1.7,3-3.6,4.5-5.4c2.9-3.6,5.5-7.3,8-11.2c-0.5,1.2-1.1,2.4-1.9,3.5c2.8-4.2,5.7-8.7,8.4-13.5c2.8-5,5-10.3,6.6-15.7l0.6-2.1
			l0.5-2.2c0.4-1.4,0.5-2.9,0.7-4.4c0.1-0.7,0.1-1.5,0.1-2.3s0.1-1.5,0.1-2.3c0-1.5-0.1-3-0.2-4.4c-0.2-2.9-0.6-5.6-1.1-8.3
			s-1-5.3-1.5-7.9c-2-9-4.5-18-7.4-26.8c-2.5-7.5-4.9-13.1-6.9-16.2l-9-24.4c10.3,32-3.1-4.3,0.7,9c-4.4-12.5-9.7-32.8-4.4-17.4
			l0.6,2.5c0.9,1.3,0.6-0.6-0.4-4.1c-0.3-0.9-0.5-1.8-0.9-2.9l-0.9-3c0-2.4,0.1-5,0.1-7.6s0-5.6,0.1-8.2c0-0.6,0-1.3,0-1.9v-1.3
			c0-0.8,0.1-1.6,0.1-2.2c0.2-2.7,0.5-4.2,0.8-3.6c0.1-1.5,0.3-2.9,0.5-4.3c0.1-0.7,0.3-1.4,0.6-2.1c0.1-0.3,0.3-0.6,0.5-0.9
			c0.1-0.1,0.2-0.3,0.4-0.4l0.2-0.1l0.3,0.1l1.5,0.6l0,0c0.7,2.1,1.4,4.1,2.1,6.2s1.5,4.3,2.2,6.5c1.1,3.3,2.2,6.6,3.3,9.9
			c1.1,3.5,2.3,7,3.4,10.6c4.4,14.1,8.6,28.1,12.5,42.1c3.9,14,7.5,28,11,41.8c3.8,13.9,7.5,27.6,11.2,41.3l-0.5-7.3l5.7,20.9
			c0.7,2.8,1,4.8,0.6,4.1c-0.5-1-1-2.1-1.3-3.1c-0.4-0.9-0.7-2-1.1-3.4s-0.8-3-1.3-4.8c0.5,2.5,1,4.9,1.8,7.3
			c0.5,1.4,0.9,2.8,1.5,4.2s1.1,2.8,1.7,4.1c0.3,0.6,0.6,1.3,0.9,1.9l0.9,1.8l1.6,3c0.6,1,1.2,1.9,1.9,2.7c0.8,1.8,1.7,3.2,2.4,4.5
			s1.3,2.2,1.8,3c0.6,0.8,1.1,1.7,1.6,2.6c0.1,0.5-1.4-1.2-3.2-3.5c-3.7-4.7-7.4-12.6-5.3-8.1c1,2,2,4,3.2,5.9
			c0.6,0.9,1.1,1.9,1.8,2.8l2,2.8l-1.6-2.6l2.4,2.8l2.2,2.2l1,1l1.1,0.9l2.2,1.9c1.9,1.6,4,3,6.1,4.4l1,0.6c0.4,0.2,0.7,0.4,1.1,0.6
			l2.5,1.3c0.9,0.4,1.9,0.8,2.9,1.2c0.5,0.2,1,0.5,1.6,0.6l1.7,0.5l2,0.7l1.7,0.4c1,0.3,1.8,0.5,2.4,0.7c0.7,0.1,1.4,0.3,2.1,0.6
			c0.6,0.3,0.3,0.5,2.8,0.7c0.5,0.1,1,0.2,1.6,0.2l2.4,0.1c1,0,2.1,0,3.6-0.1c9.5-0.1,19-1.6,28-4.6c-3.7,0.9-7.5,1.5-11.3,1.8
			c3-0.7,6.1-1.6,8.9-2.5s5.1-1.8,6.7-2.6s2.4-1.2,2-1.1c-0.5,0.1-1,0.2-1.5,0.4l-1.5,0.4l-2.1,0.6c3.2-0.9,6.4-2.1,9.3-3.6l1.4-0.8
			l1.5-0.9c1-0.6,2-1.2,3-1.9s2-1.4,3.2-2.3c0.3-0.2,0.6-0.5,0.9-0.8l0.7-0.7l1.4-1.4c8.4-8.4,16.1-17.6,23-27.3
			c6.7-9.4,12.2-19.7,16.5-30.4c2.4-6.4,4.3-13,5.6-19.6c1-8.8,1-17.7-0.2-26.5c-0.6-4.5-1.5-9.1-2.6-13.8s-2.5-9.5-4.2-14.4
			c0.8,2.5,1,4.6,0.4,3.9c-0.6-1.1-1.2-2.2-1.6-3.4c-0.4-1-0.9-2.2-1.5-3.8s-1.3-3.3-2.1-5.4c2.4,2.6-0.2-5.3-4.7-15.2
			c-2.3-5-4.9-10.4-7.6-15.5s-5-9.6-6.5-12.9c2.8,5.9-3.8-5-10.2-14.9l-4.6-7.1c-2-3-3.6-5.5-4.8-7.1s-1.7-2.3-1.6-1.9
			c0.8,1.7,1.6,3.4,2.6,5.1c-5.1-8.1-5.3-8.9-5.1-9.2s0.3-0.2-0.1-1.1c-1.1-2.3-2.3-4.5-3.7-6.6c-3.5-5.2-7.1-10.5-10.6-15.9
			c0.5,6.7,1,13.6,1.5,20.6c0.5,7,1,14.1,1.6,21.3c0.3,5.2,0.6,10.4,1,15.8c0.6,10.3,1.2,20.8,1.9,31.4c0.3,5.3,0.7,10.7,1,16.1
			c0.2,2.7,0.4,5.4,0.6,8.1l0.3,4.1l0.2,2.9c0.2,0.2,0.3-0.4,0.5-0.8s0.4-0.4,0.8,1.7c-0.2,0.3-0.4,0.6-0.6,0.9l-1,0.9l3.2-0.8
			l-1.4-0.8c-0.1-0.1-0.3-0.1-0.3-0.2l-0.1-0.4c-0.1-0.2-0.2-0.5-0.3-0.8c-0.1-0.5-0.2-0.9-0.4-1.8s-0.4-1.6-0.5-2.4
			c-0.6-3.3-1-6.7-1.3-10.2c-0.8-4.2-1.6-6-2.3-8.8s-1.4-6.5-1.7-14.4c0,2.2-0.1,5.6-0.9-0.1c-1.9-21.3-3.4-42.8-5-64.5
			c-0.8-10.9-1.5-21.7-2.1-32.6c-0.3-5.4-0.5-10.9-0.7-16.3c-0.1-2.7-0.1-5.5-0.1-8.1v-0.8v-0.6c0-0.4,0-0.8,0.1-1.2
			c0.1-0.8,0.2-1.6,0.4-2.4c0.2-0.8,0.5-1.6,0.9-2.3c0-0.1,0.1-0.2,0.2-0.3l0.1-0.1c0,0,0-0.1,0.1-0.1l0.5,0.3l1,0.6
			c0.4,0.2,0.7,0.4,1,0.6l1,0.7l1,0.7c0.3,0.2,0.7,0.5,1,0.8l3.1,2.5l3,2.7c1,0.9,1.9,1.8,2.9,2.8s1.9,1.9,2.8,2.9
			c7.1,8.1,13.4,16.9,18.6,26.3c10.6,18.9,18.3,39.3,24.5,60c-3.2-11.3-0.5-3.9,2.3,4.5c-1.6-5.6,0.9-0.1,1-1.4
			c3.3,11.6,6.2,23.3,8.5,35.1c1.4,3,3.5,12.5,4.9,21.7s2.3,18.1,3,19.9c-0.2-1.9-0.4-3.8-0.6-5.7s-0.5-3.8-0.8-5.7
			c1.7,7.5,1.9,2.1,1.8-5s-0.8-15.8,0.3-14.8c-2.4-8.3-4.4-19.5-7.4-32s-7.1-26.1-13.4-38.9c-1.9-6,2.5,4.8,1.7,1.5
			c-0.8-1.6-1.7-3.3-2.5-5.2s-1.8-3.9-2.9-6.3c-2.1-4.6-4.5-10.3-7.9-17.7c0.3,0.5,0.7,1,1,1.6c-4.4-9.1-9.4-17.8-14.9-26.3
			c-4.8-7.3-10.2-14.1-16.3-20.4c-0.7-0.8-1.5-1.5-2.3-2.3l-2.4-2.3c-0.8-0.7-1.7-1.4-2.6-2.1l-1.4-1.1c-0.6-0.5-1.2-1-1.9-1.4
			l-4-2.7l-1-0.7c-0.2-0.1-0.4-0.3-0.5-0.3l-0.5-0.2l-2-0.9l-2-0.9c-0.6-0.2-1.5-1-1.8,0.1c-0.8,1.3-1.6,2.6-2.3,4
			c-1.5,3.2-2.3,6.7-2.5,10.2c-0.1,2.1-0.1,3.1-0.1,4.5s0,2.7,0,4.1c0,5.5,0.2,11.4,0.4,17.7l0.8-3.8c0.4,10.9,0.2,13.2,0.3,18.3
			c1.1,6.2,0.6-1.4,0.3-9.2s-0.6-15.7,0.4-10c-0.7,7.3,0.3,26.4,1.7,44.9c1.4,18.5,2.8,36.4,2.2,41.4c1.6,16.7,0.6-5,2.3,11.7
			l-0.1,4.5l1.3,4.1c1.1,10.9,1.4,16.5,0.9,17c-0.4-2.7-1.3-7.5-1.7-10.4c0.5,5.9,1.3,11.9,2.5,17.7c0.6,3.3,1.4,6.5,2.4,9.6
			c0.1,0.4,0.3,0.8,0.4,1.2c0.1,0.3,0.1,0.5,0.3,0.8l0.4,0.8c0.5,1.1,1,2.1,1.5,3.1l0.4,0.8l0.2,0.4c0.1,0.1,0.3,0.1,0.4,0.2
			l1.5,0.6l2.9,1.2l3.2,1.4l2.3-2.7l3.7-4.3c-0.2-2.2-0.3-4.1-0.4-5.7c-0.1-1-0.1-1.8-0.1-2.3l0.2,3.1l0.3,4.8l-3.9,4.1l-2.4,2.6
			l-2.9-1.4c-1.5-0.7-3.1-1.3-4.6-2.1c-0.4-0.8-0.8-1.5-1.2-2.3l-1-2.4l1,2.3c0.4,0.8,0.8,1.5,1.2,2.2l0.1,0.1c0,0,0.1,0,0.1,0.1
			l0.3,0.1l0.6,0.3l1.2,0.5l2.4,1l2.9,1.2l2.1-2.4l3.6-4.1c-0.8-11.4-1.7-23.3-2.6-35.4c-0.8-11.5-1.6-23.1-2.5-34.7
			c-0.3-4.5-0.7-9-1-13.5c-0.2-2.7-0.5-5.3-0.7-7.9c-0.1-0.7-0.1-1.4-0.2-2.1l-0.1-1.1V250l0,0l0.1,0.1l0.1,0.2l0.3,0.4l2,2.9
			l4.3,6.1c-0.2-0.6-0.5-1.4-0.8-2.1l2,2.8l1,1.5l1.3,2c1.7,2.6,3.1,4.8,4.3,6.8c2.5,4,4.2,6.9,6,10l6.1,10.7
			c1.3,2.2,2.7,4.7,4.3,7.6s3.4,6.4,5.4,10.5l-0.7-1.1c4.4,7.8,8.1,16.1,11,24.6c-1.8-4.2-0.5-0.1,0.4,3.7c0.4,1.4,0.7,2.9,0.9,4.4
			c0,0.6-0.2,0.1-1.3-2.7c0.8,2.1,1.3,4,1.9,5.8s1,3.3,1.3,4.7s0.7,2.7,1,3.8s0.5,2.1,0.7,3c0.7,3.6,1,5.4,1.3,6.8l0.4,2
			c0.1,0.7,0.3,1.5,0.5,2.6s0.3,2.4,0.5,4.2c0.1,0.9,0.1,1.9,0.2,3.1s0.2,2.5,0.1,3.9l-0.6,2.6l-0.3,1.3c-0.1,0.4-0.3,0.9-0.4,1.3
			c-0.2,2-0.2,3.5-0.4,5s-0.4,2.8-0.7,4.5c-1.2,5.6-3,11.1-5.3,16.4c2.6-7,1.2-4.4-0.1-2.1s-2.5,4.4,0.2-3.3
			c-7.7,17.1-15.9,28.6-22.7,37.9c-3.1,4.2-6.5,8.2-10,12.1c-1.6,1.8-3.3,3.4-4.9,4.9c-0.8,0.8-1.7,1.5-2.5,2.2
			c-0.1,0.1-0.3,0.2-0.4,0.3c-0.1,0.1-0.4,0.2-0.6,0.4l-1.3,0.8c-0.9,0.8-1.7,1.6-2.5,2.5c-0.2,0.3,0.3,0.2,1.2-0.3
			c0.5-0.3,1-0.6,1.6-1s1.3-0.9,2.1-1.5c0.3-0.2,0.6-0.5,0.9-0.8l1.1-1.1l2.4-2.4c1.6-1.6,3.2-3.4,4.7-5s2.8-3.1,3.8-4.3
			c2-2.4,2.9-3.4,1.4-1.4c2.9-3,0.9,0.1-2.9,5c-2,2.4-4.3,5.3-6.9,8c-0.6,0.7-1.3,1.4-1.9,2c-0.3,0.3-0.6,0.6-0.9,1s-0.6,0.5-1,0.8
			c-1.3,1.1-2.7,2-4,2.8c-5.1,3.3-10.1,5-17.2,6.5c-4.3,0.9-8.6,1.5-12.9,1.9c-2.6,0.2-5.4,0.4-8.5,0.5c-1.6,0.1-3.2,0-4.9,0
			c-0.8,0-1.7-0.1-2.5-0.1c-0.9,0-1.8-0.1-2.6-0.2l1,0.1h0.8h2.5c0.5,0,1,0,1.8,0c-5.4,0-10.7-0.9-15.8-2.4
			c-5.6-1.9-10.6-5.3-14.4-9.9c-3-2.5-5.5-5.6-7.4-9c-1.9-3.2-3.2-6-4.4-6.7c0.9,2.1,2.1,4.1,3.1,6.1c1.2,1.9,2.4,3.8,3.8,5.7
			c2.6,3.6,5.8,6.8,9.3,9.5c-3.1-2.3-5.9-4.8-8.4-7.6c-0.6-0.7-1.2-1.5-1.9-2.3c-0.3-0.4-0.6-0.8-1-1.2l-0.9-1.3
			c-0.6-0.9-1.2-1.7-1.8-2.6l-1.6-2.8c-2.4-4.3-4.3-8.8-5.7-13.4c-0.9-2.5-1.5-5.3-2.3-8.2s-1.5-5.9-2.3-9.2c0.9,1.9,3.4,9.4,5,14.6
			c-1.6-7.6-4.3-14.3-6-22.2c1.1,0.9,3.5,9.2,6.3,19.3c0.7,2.6,1.5,5.1,2.3,7.6s1.8,5.1,3,7.4c1.9,4.3,4.4,8.4,7.4,12
			c-0.5-0.9-1.2-1.8-1.9-3s-1.5-2.4-2.3-3.8s-1.6-2.8-2.2-4.2s-1.4-2.8-1.9-4.2s-1-2.6-1.4-3.6c-0.3-0.8-0.6-1.6-0.8-2.5
			c-0.3-1.1,0-1.1,1,0.8c-0.7-1.4-1.4-2.9-2-4.4c-0.6-1.6-1.2-3.3-1.7-5.1c-1.1-3.6-2.1-7.5-3.2-11.8c-2.2-8.4-4.6-17.9-8.2-27.8
			l1.3,1.1c-1-3.2-3.3-9.6-4.9-15.6c1.3,3.5,2.7,6.9,4.1,10.4c-2.8-8-4.5-16.1-6.4-24s-3.6-15.8-6.2-23.6c4.7,16.5,4.9,18.5,4.4,18
			s-1.7-3.2-0.2,3.9c-3.1-10.1-4.9-16.6-6.1-21.5s-1.8-8-2.4-11.3c-1.2-6.6-2.4-14-10-36.4c2.1,6,6.8,23.1,3.3,13.7
			c-2.5-8.7-5.9-20.1-7.2-25.5l-1.9-6.4c-0.8-2.2-1.5-4.1-2-5.6c-0.6-1.9-1.4-3.7-2.3-5.5c-0.8-1.6-0.1,0.3,0.7,2.8
			c0.4,1.3,0.9,2.9,1.3,4.3s0.8,2.7,0.9,3.5c0.4,1.6,0.1,1.3-1.6-3.2l-0.5-2c-0.2-0.7-0.4-1.3-0.6-1.9c-0.4-1.2-0.8-2.3-1.2-3.3
			c-0.8-2.1-1.6-4-2.4-5.8c-0.2-0.6-0.6-1.2-1.1-1.5l-1.1-0.9c-0.7-0.6-1.4-1.3-2.2-2.1l0,0l-2.9-1l-0.4,0.1
			c-0.1,0.1-0.3,0.2-0.4,0.3c-0.3,0.2-0.5,0.4-0.8,0.6c-0.2,0.2-0.4,0.5-0.6,0.7l-0.6,0.8c-0.7,1.1-1.3,2.3-1.8,3.5l-0.5-1.3
			c-1.9,3.4-2.7,8.3-3,12.3c-0.1,1-0.2,2-0.2,2.9s-0.1,1.8-0.1,2.6c-0.1,1.6-0.1,3-0.1,4.2c0,0.6,0,1.1,0,1.6v0.7c0,0.2,0,0.5,0,0.6
			c0,0.6,0.1,1,0.1,1.4c0.1,0.6,0.2,1.2,0.4,1.8c0.4,1.4,0.6,2.9,0.6,4.4c0.1,1.3,0.1,3.1,0.1,5.5c0,1.3,0,2.7,0,4.3v1.3l0.1,0.4
			l0.5,1.6c0.3,0.9,0.5,1.8,0.8,2.7l-1.4-3.2l-0.5-1.1l-0.1-0.3v-0.3v-0.6l0-0.6V296l-0.1-0.8l-0.7-6.8l0.2,8.6v0.8
			c0,0.1,0,0.3,0,0.4l0.1,0.4l0.5,1.5l0.7,2l1.4,4l-2.1-2.9c6.5,17,8.1,22.5,13.4,39.5c-0.3-2.1,0.3-1.7,1.6,1.1
			c2.2,5,4.1,10.2,5.7,15.5c1.3,5.2,0.6,3.8,0.5,3.8s0,0.3,0.4,2s1.4,4.6,2.9,10c-2.7-6.2-4.7-12.6-6.1-19.2
			c-0.6-0.9-2.1-4.5-2.7-5.4c1.5,5.5,3.6,12.5,5.5,19s3.6,12.5,4.4,16.4c-0.6-3-1.4-6.5-1.8-8.4c1.5,5.1,3,10.2,4.1,15.3
			c0.6,2.5,1,5,1.2,7.5c0.2,2.4,0.2,4.9-0.1,7.3c-0.6,2.3-0.8,2.5-0.8,1.6c0-0.4,0-1.1,0.1-1.8s0.1-1.7,0.1-2.6
			c-0.4,6.4-2.1,12.6-5,18.4c0-1.2,0.1-2.4,0.4-3.5c0.3-1.7,1.5-4.6,2.6-10.5c-0.9,4.6-2.3,9.1-4.3,13.3c-2.1,4.4-4.5,8.7-7.2,12.8
			c-0.7,0.7-3.1,3.7-5.2,6s-3.7,4-2.6,2.4l-4.3,5l-2.3,2.7c-0.4,0.5-0.8,0.9-1.2,1.4l-1.3,1.5l-2.3,2.6l-0.6,0.6l-0.3,0.3l-0.1,0.2
			c0,0,0,0.1,0,0.2v1.8v2.1v0.5v-0.2l0,0l0,0v0.1v0.2c0,0.1-0.2,0.2-0.3,0.3l-0.1,0.2l-0.1,0.1l0,0l0,0l-0.1,0.1
			c-1,0.9-2,1.7-3.1,2.5c-4.3,3.4-8.9,6.6-13.6,9.5c-2.4,1.5-4.8,2.9-7.3,4.2l-1.9,1l-0.5,0.3l-0.3,0.1c-0.4,0.2-0.8,0.3-1.1,0.5
			c-0.3,0.2-0.6,0.5-0.9,0.7c-0.2,0.1-0.5,0.3-0.8,0.5l-0.5,0.3l-0.3,0.1c0,0-0.1,0.1-0.1,0v-0.3c0.3-2.5,0.5-5,0.8-7.3l0.1-0.9
			l0.1-0.5l0.1-0.9l0.3-3.7c0.2-2.5,0.3-4.9,0.4-7.5c0.2-5.3,0-10.6-0.7-15.9c-0.4-3.1-1.2-6.1-2.4-8.9c-0.4-0.8-0.8-1.6-1.2-2.4
			c-0.2-0.4-0.5-0.8-0.8-1.2c-0.3-0.4-0.6-0.8-0.9-1.2c-1.5-1.8-3.4-3.2-5.6-4.1l-2.1-0.8l-1.9,0.8l-2.9,1.3l-3.4,1.5l0.1,3.4
			c0,0.7,0.1,1.4,0.1,2.2c-0.5,4.7-1.1,9.4-1.9,14c-0.3,4.8-0.3,5.9,0,5.6c0.4-1.2,0.8-2.5,1-3.8c0.4-1.5,0.7-2.7,0.8-1.4
			c0.1,1.3,0.1,2.6,0,3.9c-0.1,3-0.5,5.9-0.9,8.8c-0.3,2.2-0.8,4.3-1.5,6.4c-0.4,1.2-0.9,2.5-1.4,3.6c-0.8,1.7-1.2,2.1-1.5,2.1
			c-0.5,0-0.3-1.4-2.1,1.6c-0.8,1.6-1.6,3.2-2.7,4.7c-0.4,0.8-0.9,1.5-1.5,2.2c-0.8,0.9-1.7,1.7-2.6,2.4c-0.3,0.2-0.5,0.4-0.8,0.6
			l-0.4,0.3l-0.2,0.1l0.1-0.2c0.1-0.6,0.2-1.2,0.3-1.8c0.1-1.4,0.1-3,0.2-4.5c0-0.1,0-1.4,0-2.3s0-1.9,0-2.9c0-1.9,0-3.9,0-5.8
			c0.3,3.6,0.4,6.9,0.5,10.1c0,0.6,0,1.3,0,2S285.3,483.3,285.3,483.9z M181.5,565l-1.3-1.4l-1.6-1.6c-1.1-1.1-2.3-2.3-3.5-3.4
			l-2.7-2.6l-1.4-1.4l-0.3-0.3l-0.2-0.2l-0.1-0.1c0,0,0-0.1,0-0.1l0.1-0.9c0.2-1.2,0.3-2.3,0.5-3.2c0.1-0.5,0.2-0.9,0.3-1.3
			c0-0.2,0.1-0.4,0.1-0.6l0.1-0.3c0,0.5,0,0.9,0,1.4c0,0.5,0,1,0,1.5c-0.1,1-0.1,1.9-0.2,2.9v0.4c0,0.1,0.2,0.2,0.2,0.3l0.5,0.5
			l1.1,1c0.7,0.7,1.4,1.4,2.1,2.1l1.5,1.6l1.4,1.7C179.2,562.2,180.3,563.5,181.5,565z M21.2,654.3c0.9,3.3,1.8,8.6,3.3,14.4
			C22.9,664,21.8,659.2,21.2,654.3z M174.4,764.1l-0.3,0.4c-3.3,3.9-4.5,5.1-4.2,4.7l1.5-1.7L174.4,764.1z M187.1,746.8
			c1.1-1.9,0.9-1.8,0.3-1.1c-1.9,3.5-4.1,6.8-6.5,9.9C182,754.5,183.8,752.3,187.1,746.8z M467,483.4c-1.5-0.1-3-0.3-4.5-0.6
			c0.6,0,1.2,0.1,1.8,0.1h1.5l2.2,0c1.1,0,1.6,0,1.7,0C468.8,483.3,467.9,483.4,467,483.4z"/>
		<path class="st1" d="M37.2,691.8c0.4,0.6,0.6,1.3,0.6,1.9c0.6,0.7,0.9,1,0.8,0.8S38.1,693.5,37.2,691.8z"/>
		<path class="st1" d="M322.2,481.5l0.2-0.1c0.1-0.1,0.2-0.2,0.2-0.3L322.2,481.5z"/>
		<path class="st1" d="M0.4,618.2c0.5-4.5,1-7,1.3-8.7C1.5,609.3,1.1,611.3,0.4,618.2z"/>
		<path class="st1" d="M221.6,639c-0.6,4.6-1.4,9.1-2.2,13.7c1.2-6.6,1.8-9,2.5-12.3C221.7,640.7,221,643.2,221.6,639z"/>
		<path class="st1" d="M287.2,560.5c1.6-1.2,3.3-2.5,4.8-3.8h0.3l-0.4-0.2c-0.1,0-0.2-0.1-0.3,0c-1.8,1.6-3.3,2.7-4.7,3.7
			s-2.4,1.6-3.1,2.1C282.6,562.9,283.4,562.9,287.2,560.5z"/>
		<path class="st1" d="M226.5,626.7c0.4-0.5,0.9-2.9,1.1-6.4c0.1-0.9,0.1-1.8,0.1-2.8s0-2.1,0-3.2c-0.1-2.2-0.1-4.6-0.2-7.1v1.7
			c-0.6-1.4-0.8,0.5-0.7,4c0,1.8,0,3.9,0.1,6.3S226.7,624.2,226.5,626.7z"/>
		<path class="st1" d="M227.4,605c-0.1-3-0.2-6.1-0.3-9C226.6,594.8,227.2,599.6,227.4,605z"/>
		<path class="st1" d="M200.1,722.8c2.2-4,0.3-3,1.6-5.2c0.3-1.3-0.3-0.1-1.1,1.9s-2.1,5-3.1,7.3s-1.7,4.2-1.5,4
			c0.5-0.6,0.8-1.2,1.1-1.9C197.8,727.6,198.8,725.7,200.1,722.8z"/>
		<path class="st1" d="M229.8,619c-0.4,1.2-0.8,2.3-1.2,3.5c0.1,1.8,0.2,3.7,0.3,5.5C229.3,625.1,229.6,622.1,229.8,619z"/>
		<path class="st1" d="M215.1,695.2c1.6-5,2.8-10,4-15.2c-0.2,0.2,0.1-1.8,0.6-4.2c-1,4.7-2.2,9.7-3.1,13.3
			c-0.5,1.8-0.9,3.4-1.2,4.4S215,695.3,215.1,695.2z"/>
		<path class="st1" d="M219.7,675.8c1.1-4.9,2.1-9.6,2.4-12.4C221.6,666.1,220.4,671.9,219.7,675.8z"/>
		<path class="st1" d="M227.7,640.5c-0.3,1.5-0.6,3-1,4.5c-0.6,3.7-1.4,7.3-2.1,10.9C225.7,650.8,226.7,645.6,227.7,640.5z"/>
		<path class="st1" d="M104,802.7l-4.2-0.6c-1.4-0.2-2.8-0.6-4.2-0.9l-2.1-0.5c-0.7-0.2-1.4-0.4-2-0.6l-4.1-1.2
			c-0.9-0.1-0.3,0.3,1.4,0.9c2.4,0.9,4.9,1.6,7.4,2.1c1,0.2,2.2,0.4,3.3,0.6l3.1,0.4C104.3,803.1,105.2,803.1,104,802.7z"/>
		<path class="st1" d="M153.9,793.7c-1,0.6-1.7,1.2-2.4,1.5s-1.2,0.6-1.6,0.8c-0.9,0.4-1.6,0.7-2.8,1.3l0.2,1.3
			c1.2-0.7,2.3-1.6,3.4-2.4S152.9,794.5,153.9,793.7z"/>
		<path class="st1" d="M105.4,806c-3.6-0.2-7.1-0.7-10.6-1.4c-1.7-0.3-2.6-0.5-1.8-0.2c0.4,0.1,1.3,0.4,2.7,0.7l2.6,0.6l3.6,0.6
			c0.5,0,1.9,0.2,3.6,0.3l4.8,0.2C113.1,807,113.4,807,105.4,806z"/>
		<path class="st1" d="M7.2,592.1c-0.3,1.4-0.6,2.9-0.8,4.3l2.1-0.3C8,594.8,7.6,593.5,7.2,592.1z"/>
		<path class="st1" d="M158.1,429.3c-17.9,9.6-3.6,3.5-19.8,12c-3.9,2.8,13.3-7,9.2-4.2C157.9,430.6,163.7,427.6,158.1,429.3z"/>
		<path class="st1" d="M147.5,437.1c-1.7,1-3.4,2.2-5.3,3.4C145.3,438.6,146.7,437.7,147.5,437.1z"/>
		<path class="st1" d="M570.1,336.7c0.3,2.1,0.5,4.3,0.7,6.4s0.4,4.3,0.5,6.4c0-2.8-0.2-5.5-0.3-8.3
			C570.8,339.7,570.4,338.2,570.1,336.7z"/>
		<path class="st1" d="M574.1,361.1l-1.2,3.1c0.5,2.5,0.9,5.1,1.3,7.7c0-1.5-0.1-3.6-0.2-5.6S574,362.2,574.1,361.1z"/>
		<path class="st1" d="M197.4,595.5l0.6,0.7c-0.1-0.5-0.2-1-0.4-1.6c-0.2-0.7-0.4-1.4-0.7-2l-1.1-2.7c-0.4-1-1.1-2.1-1.7-3.4
			c0.6,1.5,1.3,2.9,1.8,4.4S196.9,594,197.4,595.5z"/>
		<path class="st1" d="M245.3,503c-0.7,0.6-1.5,1.1-2.3,1.6c1.7-0.6,3.3-1.4,4.9-2.2L245.3,503z"/>
		<path class="st1" d="M294.8,467.5c-0.7,2.6-1.7,5.2-2.9,7.6c-0.6,1.2-1.3,2.4-2,3.6c-0.3,0.6-0.8,1.1-1.1,1.6
			c-0.1,0.1-0.2,0.3-0.3,0.4l-0.1,0.2l-0.1,0.1l0,0l0,0l0,0l0.3-0.3c0.1-0.1,0.2-0.3,0.3-0.4c0.4-0.5,0.8-1,1.1-1.5
			c0.7-1,1.3-2,1.8-2.9c0.9-1.6,1.7-3.2,2.5-4.9C295.4,468.3,295.7,467,294.8,467.5z"/>
		<line class="st2" x1="1506.1" y1="702.7" x2="2262.7" y2="702.7"/>
		<line class="st2" x1="319.3" y1="702.7" x2="1000.1" y2="702.7"/>
		<path class="st3" d="M1216.8,720.9c0-1.4-0.1-2.7-0.3-4.1c-0.2-1.6-0.5-3.3-0.8-5.1s-0.8-3.6-1.3-5.4c-0.5-1.7-1.1-3.4-1.9-5
			l10.4-2.9c0.5,1.4,1,3.1,1.6,4.9c0.6,1.8,1,3.8,1.4,5.8c0.4,2,0.8,4,1,6.1c0.3,1.9,0.4,3.9,0.4,5.9c0.1,4.9-0.7,9.7-2.3,14.3
			c-2.9,8.6-9.5,15.5-18,18.7c-4.9,1.9-10.1,2.8-15.3,2.7c-4.9,0.1-9.9-0.8-14.5-2.5c-3.8-1.5-7.3-3.9-10.2-6.8
			c-2.7-2.8-4.7-6.2-6-9.9c-1.3-3.8-2-7.7-2-11.8c0-2,0.2-4,0.5-6c0.3-2,0.8-4,1.3-6c0.5-1.9,1.2-3.8,2-5.6c0.7-1.6,1.5-3.2,2.5-4.8
			l8.9,5c-0.7,1.1-1.2,2.2-1.7,3.4c-0.5,1.3-1,2.6-1.3,4c-0.4,1.4-0.6,2.9-0.8,4.3c-0.2,1.4-0.3,2.9-0.3,4.3c0,2.9,0.5,5.8,1.5,8.6
			c0.9,2.6,2.4,5,4.3,7c2,2,4.4,3.6,7,4.7c3,1.2,6.3,1.8,9.6,1.7c3.5,0.1,7-0.5,10.3-1.7c2.9-1.1,5.5-2.8,7.6-5
			c2.1-2.3,3.7-5,4.7-7.9C1216.4,728.2,1216.9,724.5,1216.8,720.9z M1191.2,677.9c0-0.8,0.2-1.7,0.5-2.4c0.3-0.7,0.8-1.4,1.3-2
			c0.6-0.6,1.3-1,2-1.3c1.6-0.7,3.3-0.7,4.9,0c0.7,0.3,1.4,0.8,2,1.3c0.6,0.6,1,1.3,1.3,2c0.3,0.8,0.5,1.6,0.5,2.4
			c0,0.8-0.2,1.7-0.5,2.4c-0.3,0.7-0.8,1.4-1.3,2c-0.6,0.6-1.3,1-2,1.3c-3.1,1.4-6.7,0-8.1-3.1
			C1191.4,679.7,1191.2,678.8,1191.2,677.9L1191.2,677.9z"/>
		<path class="st3" d="M1245.1,647.3h10.6v62.9c0,1.8,0.1,3.5,0.3,5.3c0.1,1.1,0.4,2.3,0.9,3.3c0.4,0.8,1,1.4,1.8,1.7
			c1,0.4,2,0.5,3,0.5h3.9c1.1-0.1,2.2,0.2,3.2,0.7c0.8,0.6,1.2,1.5,1.1,2.4v4c0,0.6-0.1,1.2-0.3,1.8c-0.2,0.4-0.5,0.8-0.9,1
			c-0.4,0.2-0.9,0.4-1.3,0.5c-0.5,0.1-1.1,0.1-1.6,0.1h-5.5c-2.3,0.1-4.6-0.4-6.7-1.3c-1.8-0.8-3.4-2-4.7-3.6
			c-1.3-1.6-2.2-3.4-2.7-5.4c-0.6-2.2-0.9-4.5-0.9-6.7L1245.1,647.3z"/>
		<path class="st3" d="M1292,717.2c1.9,1.3,4,2.2,6.2,2.7c2.8,0.6,5.7,0.9,8.6,0.9h0.5c1.1-0.1,2.2,0.2,3.2,0.7
			c0.7,0.6,1.1,1.5,1.1,2.4v4c0,0.6-0.1,1.2-0.3,1.8c-0.2,0.4-0.5,0.8-0.9,1c-0.4,0.2-0.9,0.4-1.3,0.5c-0.5,0.1-1.1,0.1-1.6,0.1
			h-0.6c-3.4,0.1-6.9-0.4-10.1-1.6c-2.5-0.9-4.8-2.3-6.9-4c-1,1.6-2.3,2.9-3.9,4c-1.9,1.1-4,1.7-6.2,1.6h-14
			c-1.1,0.1-2.2-0.2-3.2-0.7c-0.7-0.6-1.1-1.5-1.1-2.4v-4c0-0.6,0.1-1.2,0.3-1.8c0.2-0.4,0.5-0.8,0.9-1c0.4-0.2,0.9-0.4,1.3-0.5
			c0.5-0.1,1.1-0.1,1.6-0.1h11.8c1.2,0,2.4-0.6,3-1.6c0.8-1.5,1.2-3.3,1.1-5v-28h10.5V717.2z M1280,665.1c0-0.8,0.2-1.7,0.5-2.4
			c0.3-0.7,0.8-1.4,1.3-2c0.6-0.6,1.2-1,2-1.3c1.6-0.7,3.3-0.7,4.9,0c0.7,0.3,1.4,0.8,2,1.3c0.6,0.6,1,1.3,1.3,2
			c0.7,1.6,0.7,3.3,0,4.9c-0.3,0.7-0.8,1.4-1.3,2c-0.6,0.6-1.3,1-2,1.3c-3.1,1.4-6.7,0-8.1-3.1C1280.2,666.9,1280,666,1280,665.1
			L1280,665.1z"/>
		<path class="st3" d="M1333.8,717.2c1.9,1.3,4,2.2,6.2,2.8c2.8,0.6,5.7,0.9,8.6,0.9h0.5c1.1-0.1,2.2,0.2,3.2,0.7
			c0.7,0.6,1.1,1.5,1,2.4v4c0,0.6-0.1,1.2-0.3,1.8c-0.2,0.4-0.5,0.8-0.9,1c-0.4,0.2-0.9,0.4-1.3,0.5c-0.5,0.1-1.1,0.1-1.6,0.1h-0.6
			c-3.4,0.1-6.9-0.4-10.1-1.6c-2.5-0.9-4.8-2.3-6.9-4c-1,1.6-2.3,2.9-3.9,4c-1.9,1.1-4,1.7-6.2,1.6h-14c-1.1,0.1-2.2-0.2-3.2-0.7
			c-0.7-0.6-1.1-1.5-1-2.4v-4c0-0.6,0.1-1.2,0.3-1.8c0.2-0.4,0.5-0.8,0.9-1c0.4-0.2,0.9-0.4,1.3-0.5c0.5-0.1,1.1-0.1,1.7-0.1h11.8
			c1.2,0,2.4-0.6,3-1.6c0.8-1.5,1.2-3.3,1.1-5v-28.1h10.6L1333.8,717.2z M1322.2,749c0-0.8,0.2-1.7,0.5-2.4c0.3-0.7,0.8-1.4,1.3-2
			c0.6-0.6,1.2-1,2-1.3c1.6-0.7,3.3-0.7,4.9,0c1.5,0.6,2.7,1.8,3.3,3.3c0.7,1.6,0.7,3.3,0,4.9c-0.3,0.8-0.8,1.4-1.3,2
			c-0.6,0.6-1.3,1-2,1.3c-0.8,0.3-1.6,0.5-2.4,0.5c-3.4,0.1-6.2-2.6-6.2-6C1322.2,749.2,1322.2,749.1,1322.2,749L1322.2,749z"/>
		<path class="st3" d="M1349.1,731.4c-1.1,0.1-2.2-0.2-3.2-0.7c-0.7-0.6-1.1-1.5-1.1-2.4v-4c0-0.6,0.1-1.2,0.3-1.8
			c0.2-0.4,0.5-0.8,0.9-1c0.4-0.2,0.9-0.4,1.3-0.5c0.5-0.1,1.1-0.1,1.6-0.1h15.9v-73.7h10.6v84.2H1349.1z"/>
		<path class="st4" d="M915.8,391.6l19.4-38.5c0,0,113.1,15.7,94.6,144.7c0,0-9.5,40.3-46.7,43.5c0,0-68.9,7.4-93.7,6.9l2.7-30.2
			c0,0,0.8-18.6,26.4-18c0,0,42,0.1,81.8-9c0,0,7.3-8.8-5.9-36.5C994.4,454.6,974,403.3,915.8,391.6"/>
		<path class="st4" d="M719.5,349.5c-22-6.4-8.1,48.4-8.1,48.4s61.9,50.2,60.6,60.9c0,0-14.3,43.9-71.9,79.9
			c0,0-58.5,38.4-126.6,19.4c-0.4-0.1-2-0.2-1.2,1.3c0,0,75.2,67.5,165,1.1c0,0,86.3-66.7,50.9-155.4
			C788.1,405.1,766,363,719.5,349.5"/>
		<polygon class="st4" points="1892.3,281.8 1885.2,297.6 1431.7,384.6 1440.6,368.2 		"/>
		<path class="st4" d="M1106.6,215.7c-6.9-19.9-10.7-13.4-10.7-13.4s-17.6,22.4-23.3,28.4s-2.5,5.9,0,15.1c0,0,19.4,42.3,20.9,174.4
			c0.3,26.3-9.7,86,46.5,101.8c56.7,15.8,133,12.6,178,12l190.9-2.6l231.4-3.3c0,0,39.6,1,62-12.8c13.9-8.6,26.7-18.8,38.2-30.4
			c0,0,7.4,28.3,68.1,40c-6.7,11-12.7,22.4-17.7,34.2c-9.8,23.7-17,47.3-16,61.4c0,0-0.1,11,3.4,12s3-0.3,3.6-3s1.1-8.8,2.3-14.2
			s5.6-16.5,7.7-20.7c7.2-14.5,32.8-44.4,47.4-56.1c4-3.3,8.2-6.3,12.7-9c22.6,0.7,45.2,0,67.7-2.2c0,0,141.4-8.9,189.9-32.1
			s54.3-43,53.2-49.2s1.6-16.7-33.2-34.2s-59.5-27.4-73.2-25.7c-13.3,1.7-27.4,0.7-110.1,47.1l-1,0.5c0,0-64.6,37.1-82.8,43.6
			s-47.7,10.2-71.6-8.6s-5.1-56-24.1-57.6s-40.3,46.7-50.4,60.8s-26.7,14.7-55.3,15.4s-445.6,8.5-445.6,8.5s-94.1,1.9-120.3-0.6
			c-59.3-5.6-66.1-23.3-66.6-59.6C1126.1,273.8,1106.7,215.6,1106.6,215.7 M2184.7,469.9c-11,2.9-24.5,4.2-37.3,6.5
			c-61.6,10.8-127.8,12.9-127.8,12.9s13.2-9,39-25.6c25.8-16.6,57.9-30.2,57.9-30.2c24.6-11.3,37.6-5,60,3.9s26.4,17.2,26.8,22
			S2199.2,466.1,2184.7,469.9"/>
	</g>
</g>
</svg>
